<svg width="32" height="32" viewBox="0 0 32 32" fill="none" xmlns="http://www.w3.org/2000/svg">
    <circle cx="16" cy="16" r="16" fill="#F0F3F5"/>
    <g clip-path="url(#clip0)">
        <mask id="path-2-inside-1" fill="white">
            <path fill-rule="evenodd" clip-rule="evenodd" d="M15.1391 7.49258C15.5259 6.8358 16.4758 6.83581 16.8625 7.49259L23.8618 19.3789C24.2544 20.0455 23.7737 20.8863 23.0001 20.8863H9.00152C8.2279 20.8863 7.74727 20.0455 8.13982 19.3789L15.1391 7.49258ZM17.1 19C17.1 19.5523 16.6075 20 16 20C15.3925 20 14.9 19.5523 14.9 19C14.9 18.4477 15.3925 18 16 18C16.6075 18 17.1 18.4477 17.1 19ZM16 10C15.4477 10 15 10.4477 15 11V16C15 16.5523 15.4477 17 16 17C16.5523 17 17 16.5523 17 16V11C17 10.4477 16.5523 10 16 10Z"/>
        </mask>
        <path fill-rule="evenodd" clip-rule="evenodd" d="M15.1391 7.49258C15.5259 6.8358 16.4758 6.83581 16.8625 7.49259L23.8618 19.3789C24.2544 20.0455 23.7737 20.8863 23.0001 20.8863H9.00152C8.2279 20.8863 7.74727 20.0455 8.13982 19.3789L15.1391 7.49258ZM17.1 19C17.1 19.5523 16.6075 20 16 20C15.3925 20 14.9 19.5523 14.9 19C14.9 18.4477 15.3925 18 16 18C16.6075 18 17.1 18.4477 17.1 19ZM16 10C15.4477 10 15 10.4477 15 11V16C15 16.5523 15.4477 17 16 17C16.5523 17 17 16.5523 17 16V11C17 10.4477 16.5523 10 16 10Z" fill="#EC343A"/>
        <path d="M16.8625 7.49259L18.5859 6.47775L18.5859 6.47775L16.8625 7.49259ZM15.1391 7.49258L16.8625 8.50742L15.1391 7.49258ZM23.8618 19.3789L22.1384 20.3937L23.8618 19.3789ZM8.13982 19.3789L6.41641 18.3641L8.13982 19.3789ZM18.5859 6.47775C17.4257 4.50742 14.5759 4.50741 13.4157 6.47775L16.8625 8.50742C16.4758 9.1642 15.5259 9.16419 15.1391 8.50742L18.5859 6.47775ZM25.5852 18.3641L18.5859 6.47775L15.1391 8.50742L22.1384 20.3937L25.5852 18.3641ZM23.0001 22.8863C25.321 22.8863 26.7629 20.364 25.5852 18.3641L22.1384 20.3937C21.7459 19.7271 22.2265 18.8863 23.0001 18.8863V22.8863ZM9.00152 22.8863H23.0001V18.8863H9.00152V22.8863ZM6.41641 18.3641C5.23877 20.364 6.68066 22.8863 9.00152 22.8863V18.8863C9.77514 18.8863 10.2558 19.7271 9.86322 20.3937L6.41641 18.3641ZM13.4157 6.47775L6.41641 18.3641L9.86322 20.3937L16.8625 8.50742L13.4157 6.47775ZM16 22C17.5284 22 19.1 20.832 19.1 19H15.1C15.1 18.2726 15.6866 18 16 18V22ZM12.9 19C12.9 20.832 14.4716 22 16 22V18C16.3134 18 16.9 18.2726 16.9 19H12.9ZM16 16C14.4716 16 12.9 17.168 12.9 19H16.9C16.9 19.7274 16.3134 20 16 20V16ZM19.1 19C19.1 17.168 17.5284 16 16 16V20C15.6866 20 15.1 19.7274 15.1 19H19.1ZM17 11C17 11.5523 16.5523 12 16 12V8C14.3431 8 13 9.34315 13 11H17ZM17 16V11H13V16H17ZM16 15C16.5523 15 17 15.4477 17 16H13C13 17.6569 14.3431 19 16 19V15ZM15 16C15 15.4477 15.4477 15 16 15V19C17.6569 19 19 17.6569 19 16H15ZM15 11V16H19V11H15ZM16 12C15.4477 12 15 11.5523 15 11H19C19 9.34315 17.6569 8 16 8V12Z" fill="#EC343A" mask="url(#path-2-inside-1)"/>
    </g>
    <defs>
        <clipPath id="clip0">
            <rect width="16" height="16" fill="white" transform="translate(8 6)"/>
        </clipPath>
    </defs>
</svg>
