<svg width="32" height="32" xmlns="http://www.w3.org/2000/svg">
  <defs>
    <clipPath id="clip0">
      <rect id="svg_1" x="8" y="8" fill="white" height="16" width="16"/>
    </clipPath>
  </defs>
  <g>
    <title>background</title>
    <rect fill="none" id="canvas_background" height="402" width="582" y="-1" x="-1"/>
  </g>
  <g>
    <title>Layer 1</title>
    <circle id="svg_2" fill="#F0F3F5" r="16" cy="16" cx="16"/>
    <g id="svg_12" clip-path="url(#clip0)"/>
    <g id="svg_16" clip-path="url(#clip0)">
      <path id="svg_13" fill="#8b9aa3" d="m17.72716,9.24066l0,3.06364l3.06368,0l-3.06368,-3.06364z"/>
      <path id="svg_14" fill="#8B9AA3" d="m16.9063,13.12507l0,-4.12469l-6.95746,0l0,13.56174l7.76112,0c-0.3504,-0.3638 -0.6275,-0.7828 -0.8239,-1.2473c-0.21418,-0.5066 -0.32277,-1.0438 -0.32277,-1.5975c0,-0.5536 0.10859,-1.09083 0.32277,-1.59743c0.2068,-0.48854 0.50249,-0.92729 0.87888,-1.30396c0.37667,-0.37639 0.81542,-0.67208 1.30396,-0.87888c0.5066,-0.21418 1.04384,-0.32277 1.59744,-0.32277c0.1316,0 0.2624,0.00629 0.392,0.0186l0,-2.50781l-4.15204,0zm-4.91111,-0.00902l3.28246,0l0,0.82061l-3.28246,0l0,-0.82061zm3.28246,5.74432l-3.28246,0l0,-0.82062l3.28246,0l0,0.82062zm0.82062,-1.64124l-4.10308,0l0,-0.82062l4.10308,0l0,0.82062zm2.08792,-1.64123l-6.191,0l0,-0.82062l6.191,0l0,0.82062z"/>
      <path id="svg_15" fill="#8B9AA3" d="m20.66684,16.4347c-1.81273,0 -3.28245,1.46973 -3.28245,3.28242c0,1.8128 1.46972,3.2825 3.28245,3.2825c1.8128,0 3.2825,-1.4697 3.2825,-3.2825c0,-1.81269 -1.4697,-3.28242 -3.2825,-3.28242zm-0.3471,4.50682l-1.16611,-1.2l0.58866,-0.572l0.61815,0.6363l1.2917,-1.15162l0.546,0.61242l-1.8784,1.6749z"/>
    </g>
  </g>
</svg>