<svg width="32" height="32" viewBox="0 0 32 32" fill="none" xmlns="http://www.w3.org/2000/svg">
    <circle cx="16" cy="16" r="16" fill="#F0F3F5"/>
    <g clip-path="url(#clip0)">
        <path d="M21.1876 17.9062H17.0166C17.8041 18.5942 18.3126 19.5934 18.3126 20.7188C18.3126 21.8441 17.8041 22.8433 17.0166 23.5312H21.1876C22.7409 23.5312 24.0001 22.2721 24.0001 20.7188C24.0001 19.1654 22.7409 17.9062 21.1876 17.9062Z" fill="#8B9AA3"/>
        <path d="M14.5626 17.9062H13.2666C14.0541 18.5942 14.5626 19.5934 14.5626 20.7188C14.5626 21.8441 14.0541 22.8433 13.2666 23.5312H14.5626C16.1159 23.5312 17.3751 22.2721 17.3751 20.7188C17.3751 19.1654 16.1159 17.9062 14.5626 17.9062Z" fill="#8B9AA3"/>
        <path d="M16.4687 14.3596V14.0399C16.6638 13.971 16.844 13.8637 16.9938 13.7135C17.2597 13.4484 17.4062 13.095 17.4062 12.7188C17.4062 12.3425 17.2597 11.9891 16.9947 11.7249C16.8441 11.5734 16.6646 11.4613 16.4687 11.3922V11.3125H16.9375C17.1393 11.3125 17.3183 11.1834 17.382 10.9921L18.3195 9.08581C18.3675 8.943 18.3433 8.78553 18.2554 8.66328C18.167 8.54106 18.0256 8.46875 17.875 8.46875H14.125C13.9744 8.46875 13.8329 8.54106 13.7446 8.66331C13.6566 8.78553 13.6324 8.943 13.6805 9.08584L14.618 10.9921C14.6816 11.1834 14.8606 11.3125 15.0625 11.3125H15.5312V11.7812C15.5312 12.0403 15.7409 12.25 16 12.25C16.1254 12.25 16.243 12.2985 16.3318 12.3878C16.4202 12.4757 16.4687 12.5933 16.4687 12.7188C16.4687 12.8442 16.4202 12.9618 16.3309 13.0506C16.1551 13.2273 15.8448 13.2273 15.669 13.0506C15.4863 12.8671 15.1897 12.8671 15.0061 13.0497C14.8226 13.2324 14.8226 13.5295 15.0052 13.7126C15.1556 13.8634 15.336 13.9707 15.5312 14.0398V14.3596L11.1826 16.9688H13.0048L15.5312 15.4528V16.9688H16.4687V15.4528L18.9951 16.9688H20.8175L16.4687 14.3596Z" fill="#8B9AA3"/>
        <path d="M10.8125 20.25C10.5539 20.25 10.3438 20.4601 10.3438 20.7188C10.3438 20.9774 10.5539 21.1875 10.8125 21.1875C11.0711 21.1875 11.2812 20.9774 11.2812 20.7188C11.2812 20.4601 11.0711 20.25 10.8125 20.25Z" fill="#8B9AA3"/>
        <path d="M10.8125 17.9062C9.25919 17.9062 8 19.1654 8 20.7188C8 22.2721 9.25919 23.5312 10.8125 23.5312C12.3658 23.5312 13.625 22.2721 13.625 20.7188C13.625 19.1654 12.3658 17.9062 10.8125 17.9062ZM10.8125 22.125C10.0371 22.125 9.40625 21.4942 9.40625 20.7188C9.40625 19.9433 10.0371 19.3125 10.8125 19.3125C11.5879 19.3125 12.2188 19.9433 12.2188 20.7188C12.2188 21.4942 11.5879 22.125 10.8125 22.125Z" fill="#8B9AA3"/>
    </g>
    <defs>
        <clipPath id="clip0">
            <rect width="16" height="16" fill="white" transform="translate(8 8)"/>
        </clipPath>
    </defs>
</svg>
