<svg width="21" height="28" viewBox="0 0 21 28" xmlns="http://www.w3.org/2000/svg" fill="none"><path d="M19.6 0h-18.2c-.773 0-1.4.627-1.4 1.4v25.2c0 .773.627 1.4 1.4 1.4h18.2c.773 0 1.4-.627 1.4-1.4v-25.2c0-.773-.627-1.4-1.4-1.4z" fill="#69C57F"/><path opacity=".5" d="M16 20h-3v2h3v-2zm-11 0v2h3v-2h-3zm4 0v2h3v-2h-3zm7-1v-2h-3v2h3zm-11 0h3v-2h-3v2zm4 0h3v-2h-3v2zm7-3v-2h-11v2h3v-2h1v2h3v-2h1v2h3zm-12-3h13v10h-13v-10z" fill="#fff"/><path fill-rule="evenodd" clip-rule="evenodd" d="M6.7 9c-.587 0-1.017-.123-1.29-.37-.273-.253-.41-.663-.41-1.23v-1.8c0-.56.137-.967.41-1.22.28-.253.71-.38 1.29-.38h1.29v1h-1.25c-.247 0-.433.057-.56.17-.127.113-.19.273-.19.48v1.7c0 .207.063.367.19.48.127.113.313.17.56.17h1.25v1h-1.29zm6.3-5h1v3h1v-3h1v3l-1 2h-1l-1-2v-3zm-1.39 4.69c.26-.207.39-.52.39-.94v-.45c0-.427-.117-.747-.35-.96-.233-.22-.573-.34-1.02-.34h-.15c-.14 0-.257-.027-.35-.1-.087-.073-.13-.187-.13-.34v-.11c0-.147.05-.257.15-.33.1-.08.233-.12.4-.12h1.45v-1h-1.5c-.493 0-.907.1-1.16.3-.253.193-.34.513-.34.96v.47c0 .44.073.763.3.97.233.2.433.3.9.3h.37c.287 0 .43.15.43.45v.1c0 .147-.047.26-.14.34-.093.073-.23.11-.41.11h-1.45v1h1.5c.487 0 .857-.103 1.11-.31z" fill="#fff"/></svg>