<svg width="30" height="40" viewBox="0 0 30 40" xmlns="http://www.w3.org/2000/svg" fill="none"><path d="M28 0h-26c-1.105 0-2 .895-2 2v36c0 1.105.895 2 2 2h26c1.105 0 2-.895 2-2v-36c0-1.105-.895-2-2-2z" fill="#69C57F"/><path opacity=".5" d="M22 29v-3h-3v3h3zm0 1h-3v3h3v-3zm-14-1h6v-3h-6v3zm0 1v3h6v-3h-6zm7-1h3v-3h-3v3zm0 1v3h3v-3h-3zm7-5v-3h-3v3h3zm-14 0h6v-3h-6v3zm7 0h3v-3h-3v3zm7-4v-3h-14v3h6v-3h1v3h3v-3h1v3h3zm-15-4h16v17h-16v-17z" fill="#fff"/><path fill-rule="evenodd" clip-rule="evenodd" d="M11.7 12c-.587 0-1.017-.123-1.29-.37-.273-.253-.41-.663-.41-1.23v-1.8c0-.56.137-.967.41-1.22.28-.253.71-.38 1.29-.38h1.29v1h-1.25c-.247 0-.433.057-.56.17-.127.113-.19.273-.19.48v1.7c0 .207.063.367.19.48.127.113.313.17.56.17h1.25v1h-1.29zm6.3-5h1v3h1v-3h1v3l-1 2h-1l-1-2v-3zm-1.39 4.69c.26-.207.39-.52.39-.94v-.45c0-.427-.117-.747-.35-.96-.233-.22-.573-.34-1.02-.34h-.15c-.14 0-.257-.027-.35-.1-.087-.073-.13-.187-.13-.34v-.11c0-.147.05-.257.15-.33.1-.08.233-.12.4-.12h1.45v-1h-1.5c-.493 0-.907.1-1.16.3-.253.193-.34.513-.34.96v.47c0 .44.073.763.3.97.233.2.433.3.9.3h.37c.287 0 .43.15.43.45v.1c0 .147-.047.26-.14.34-.093.073-.23.11-.41.11h-1.45v1h1.5c.487 0 .857-.103 1.11-.31z" fill="#fff"/></svg>