<svg width="30" height="40" viewBox="0 0 30 40" xmlns="http://www.w3.org/2000/svg" fill="none"><path d="M28 0h-26c-1.105 0-2 .895-2 2v36c0 1.105.895 2 2 2h26c1.105 0 2-.895 2-2v-36c0-1.105-.895-2-2-2z" fill="#75ADEA"/><path opacity=".5" d="M7.5 19h15c.276 0 .5.224.5.5s-.224.5-.5.5h-15c-.276 0-.5-.224-.5-.5s.224-.5.5-.5zm0 3h9c.276 0 .5.224.5.5s-.224.5-.5.5h-9c-.276 0-.5-.224-.5-.5s.224-.5.5-.5zm0 3h11c.276 0 .5.224.5.5s-.224.5-.5.5h-11c-.276 0-.5-.224-.5-.5s.224-.5.5-.5zm0 6h13c.276 0 .5.224.5.5s-.224.5-.5.5h-13c-.276 0-.5-.224-.5-.5s.224-.5.5-.5zm0-3h7c.276 0 .5.224.5.5s-.224.5-.5.5h-7c-.276 0-.5-.224-.5-.5s.224-.5.5-.5z" fill="#fff"/><path d="M11 11.77c-.22.153-.487.23-.8.23h-.5c-.587 0-1.017-.123-1.29-.37-.273-.253-.41-.663-.41-1.23v-1.8c0-.56.137-.967.41-1.22.28-.253.77-.38 1.35-.38h1.24v-2h1v7h-1v-.23zm-.65-.77c.22 0 .383-.057.49-.17.107-.12.16-.247.16-.38v-2.45h-1.25c-.247 0-.433.057-.56.17-.127.113-.19.273-.19.48v1.7c0 .207.063.367.19.48.127.113.313.17.56.17h.6zM17 10.4c0 .56-.14.967-.42 1.22-.273.253-.7.38-1.28.38h-.6c-.58 0-1.01-.127-1.29-.38-.273-.253-.41-.66-.41-1.22v-1.8c0-.56.137-.967.41-1.22.28-.253.71-.38 1.29-.38h.6c.58 0 1.007.127 1.28.38.28.253.42.66.42 1.22v1.8zm-1-1.75c0-.207-.063-.367-.19-.48-.127-.113-.313-.17-.56-.17h-.5c-.247 0-.433.057-.56.17-.127.113-.19.273-.19.48v1.7c0 .207.063.367.19.48.127.113.313.17.56.17h.5c.247 0 .433-.057.56-.17.127-.113.19-.273.19-.48v-1.7zM19.71 12c-.587 0-1.017-.123-1.29-.37-.273-.253-.41-.663-.41-1.23v-1.8c0-.56.137-.967.41-1.22.28-.253.71-.38 1.29-.38h1.29v1h-1.25c-.247 0-.433.057-.56.17-.127.113-.19.273-.19.48v1.7c0 .207.063.367.19.48.127.113.313.17.56.17h1.25v1h-1.29z" fill="#fff"/></svg>