<svg width="21" height="28" viewBox="0 0 21 28" xmlns="http://www.w3.org/2000/svg" fill="none"><path d="M19.6 0h-18.2c-.773 0-1.4.627-1.4 1.4v25.2c0 .773.627 1.4 1.4 1.4h18.2c.773 0 1.4-.627 1.4-1.4v-25.2c0-.773-.627-1.4-1.4-1.4z" fill="#ED9254"/><path opacity=".6" fill-rule="evenodd" clip-rule="evenodd" d="M6.5 14c-.276 0-.5.224-.5.5v6.167l2-1.667 4.5 4h2c.276 0 .5-.224.5-.5v-8c0-.276-.224-.5-.5-.5h-8zm-.5 8.5v-.167l2.108-1.811 2.892 2.478h-4.5c-.276 0-.5-.224-.5-.5zm-1-8v8.5c0 .552.448 1 1 1h9c.552 0 1-.448 1-1v-8.5c0-.828-.672-1.5-1.5-1.5h-8c-.828 0-1.5.672-1.5 1.5zm5 3c0-.828.672-1.5 1.5-1.5s1.5.672 1.5 1.5-.672 1.5-1.5 1.5-1.5-.672-1.5-1.5zm1.5-2.5c-1.381 0-2.5 1.119-2.5 2.5s1.119 2.5 2.5 2.5 2.5-1.119 2.5-2.5-1.119-2.5-2.5-2.5z" fill="#fff"/><path d="M12 3v-1h-1v1h1zM10 4v1h1v3h-1v1h3v-1h-1v-4h-2zM16.35 3c-.107 0-.193.03-.26.09-.06.053-.09.123-.09.21v.7h1v1h-1v3h1v1h-3v-1h1v-3h-1v-1h1v-.9c0-.34.097-.607.29-.8.193-.2.443-.3.75-.3h1.46v1h-1.15z" fill="#fff"/><path fill-rule="evenodd" clip-rule="evenodd" d="M8 8.8c-.207.133-.457.2-.75.2h-.55c-.587 0-1.017-.123-1.29-.37-.273-.253-.41-.663-.41-1.23v-1.8c0-.56.137-.967.41-1.22.28-.253.71-.38 1.29-.38h2.3v6c0 .552-.448 1-1 1h-2.5v-1h1.5c.84 0 1 0 1-1v-.2zm-.65-.8c.22 0 .383-.057.49-.17.107-.12.16-.247.16-.38v-2.45h-1.25c-.247 0-.433.057-.56.17-.127.113-.19.273-.19.48v1.7c0 .207.063.367.19.48.127.113.313.17.56.17h.6z" fill="#fff"/></svg>