<svg width="30" height="40" viewBox="0 0 30 40" xmlns="http://www.w3.org/2000/svg" fill="none"><path d="M28 0h-26c-1.105 0-2 .895-2 2v36c0 1.105.895 2 2 2h26c1.105 0 2-.895 2-2v-36c0-1.105-.895-2-2-2z" fill="#ED9254"/><path opacity=".6" fill-rule="evenodd" clip-rule="evenodd" d="M8.5 18c-.276 0-.5.224-.5.5v9.167l2-2.667 5 5 4-3 3 2.25v-10.75c0-.276-.224-.5-.5-.5h-13zm-.5 13.5v-2.167l2.108-2.811 4.798 4.798 4.094-3.07 3 2.25v1c0 .276-.224.5-.5.5h-13c-.276 0-.5-.224-.5-.5zm-1-13v13.5c0 .552.448 1 1 1h14c.552 0 1-.448 1-1v-13.5c0-.828-.672-1.5-1.5-1.5h-13c-.828 0-1.5.672-1.5 1.5zm9 4c0-.828.672-1.5 1.5-1.5s1.5.672 1.5 1.5-.672 1.5-1.5 1.5-1.5-.672-1.5-1.5zm1.5-2.5c-1.381 0-2.5 1.119-2.5 2.5s1.119 2.5 2.5 2.5 2.5-1.119 2.5-2.5-1.119-2.5-2.5-2.5z" fill="#fff"/><path d="M16 5v-1h-1v1h1zM14 6v1h1v3h-1v1h3v-1h-1v-4h-2zM20.35 5c-.107 0-.193.03-.26.09-.06.053-.09.123-.09.21v.7h1v1h-1v3h1v1h-3v-1h1v-3h-1v-1h1v-.9c0-.34.097-.607.29-.8.193-.2.443-.3.75-.3h1.46v1h-1.15z" fill="#fff"/><path fill-rule="evenodd" clip-rule="evenodd" d="M12 10.8c-.207.133-.457.2-.75.2h-.55c-.587 0-1.017-.123-1.29-.37-.273-.253-.41-.663-.41-1.23v-1.8c0-.56.137-.967.41-1.22.28-.253.71-.38 1.29-.38h2.3v6c0 .552-.448 1-1 1h-2.5v-1h1.5c.84 0 1 0 1-1v-.2zm-.65-.8c.22 0 .383-.057.49-.17.107-.12.16-.247.16-.38v-2.45h-1.25c-.247 0-.433.057-.56.17-.127.113-.19.273-.19.48v1.7c0 .207.063.367.19.48.127.113.313.17.56.17h.6z" fill="#fff"/></svg>