<svg width="30" height="40" viewBox="0 0 30 40" xmlns="http://www.w3.org/2000/svg" fill="none"><path d="M28 0h-26c-1.105 0-2 .895-2 2v36c0 1.105.895 2 2 2h26c1.105 0 2-.895 2-2v-36c0-1.105-.895-2-2-2z" fill="#ED9254"/><path opacity=".6" fill-rule="evenodd" clip-rule="evenodd" d="M8.5 18c-.276 0-.5.224-.5.5v9.167l2-2.667 5 5 4-3 3 2.25v-10.75c0-.276-.224-.5-.5-.5h-13zm-.5 13.5v-2.167l2.108-2.811 4.798 4.798 4.094-3.07 3 2.25v1c0 .276-.224.5-.5.5h-13c-.276 0-.5-.224-.5-.5zm-1-13v13.5c0 .552.448 1 1 1h14c.552 0 1-.448 1-1v-13.5c0-.828-.672-1.5-1.5-1.5h-13c-.828 0-1.5.672-1.5 1.5zm9 4c0-.828.672-1.5 1.5-1.5s1.5.672 1.5 1.5-.672 1.5-1.5 1.5-1.5-.672-1.5-1.5zm1.5-2.5c-1.381 0-2.5 1.119-2.5 2.5s1.119 2.5 2.5 2.5 2.5-1.119 2.5-2.5-1.119-2.5-2.5-2.5z" fill="#fff"/><path fill-rule="evenodd" clip-rule="evenodd" d="M11 5v-1h-1v1h1zm-1.1 6.91c-.06.06-.143.09-.25.09h-1.15v1h1.46c.307 0 .557-.1.75-.3.193-.193.29-.46.29-.8v-5.9h-2v1h1v4.7c0 .087-.033.157-.1.21zm2.9-5.67v-.24h-.8v7h1.01v-2h1.29c.58 0 1.007-.127 1.28-.38.28-.253.42-.66.42-1.22v-1.8c0-.567-.137-.973-.41-1.22-.273-.253-.703-.38-1.29-.38h-.7c-.327 0-.593.08-.8.24zm.36.94c.107-.12.27-.18.49-.18h.6c.247 0 .433.057.56.17.127.113.19.273.19.48v1.7c0 .207-.063.367-.19.48-.127.113-.313.17-.56.17h-1.24l-.01-2.45c0-.133.053-.257.16-.37zm6.09 3.82c.293 0 .543-.067.75-.2v.2c0 1 0 1-1 1h-1.5v1h2.5c.552 0 1-.448 1-1v-6h-2.3c-.58 0-1.01.127-1.29.38-.273.253-.41.66-.41 1.22v1.8c0 .567.137.977.41 1.23.273.247.703.37 1.29.37h.55zm.59-1.17c-.107.113-.27.17-.49.17h-.6c-.247 0-.433-.057-.56-.17-.127-.113-.19-.273-.19-.48v-1.7c0-.207.063-.367.19-.48.127-.113.313-.17.56-.17h1.25v2.45c0 .133-.053.26-.16.38z" fill="#fff"/></svg>