<svg width="21" height="28" viewBox="0 0 21 28" xmlns="http://www.w3.org/2000/svg" fill="none"><path d="M19.6 0h-18.2c-.773 0-1.4.627-1.4 1.4v25.2c0 .773.627 1.4 1.4 1.4h18.2c.773 0 1.4-.627 1.4-1.4v-25.2c0-.773-.627-1.4-1.4-1.4z" fill="#ED9254"/><path opacity=".6" fill-rule="evenodd" clip-rule="evenodd" d="M6.5 14c-.276 0-.5.224-.5.5v6.167l2-1.667 4.5 4h2c.276 0 .5-.224.5-.5v-8c0-.276-.224-.5-.5-.5h-8zm-.5 8.5v-.167l2.108-1.811 2.892 2.478h-4.5c-.276 0-.5-.224-.5-.5zm-1-8v8.5c0 .552.448 1 1 1h9c.552 0 1-.448 1-1v-8.5c0-.828-.672-1.5-1.5-1.5h-8c-.828 0-1.5.672-1.5 1.5zm5 3c0-.828.672-1.5 1.5-1.5s1.5.672 1.5 1.5-.672 1.5-1.5 1.5-1.5-.672-1.5-1.5zm1.5-2.5c-1.381 0-2.5 1.119-2.5 2.5s1.119 2.5 2.5 2.5 2.5-1.119 2.5-2.5-1.119-2.5-2.5-2.5z" fill="#fff"/><path fill-rule="evenodd" clip-rule="evenodd" d="M7 3v-1h-1v1h1zm-1.1 6.91c-.06.06-.143.09-.25.09h-1.15v1h1.46c.307 0 .557-.1.75-.3.193-.193.29-.46.29-.8v-5.9h-2v1h1v4.7c0 .087-.033.157-.1.21zm2.9-5.67v-.24h-.8v7h1.01v-2h1.29c.58 0 1.007-.127 1.28-.38.28-.253.42-.66.42-1.22v-1.8c0-.567-.137-.973-.41-1.22-.273-.253-.703-.38-1.29-.38h-.7c-.327 0-.593.08-.8.24zm.36.94c.107-.12.27-.18.49-.18h.6c.247 0 .433.057.56.17.127.113.19.273.19.48v1.7c0 .207-.063.367-.19.48-.127.113-.313.17-.56.17h-1.24l-.01-2.45c0-.133.053-.257.16-.37zm6.09 3.82c.293 0 .543-.067.75-.2v.2c0 1 0 1-1 1h-1.5v1h2.5c.552 0 1-.448 1-1v-6h-2.3c-.58 0-1.01.127-1.29.38-.273.253-.41.66-.41 1.22v1.8c0 .567.137.977.41 1.23.273.247.703.37 1.29.37h.55zm.59-1.17c-.107.113-.27.17-.49.17h-.6c-.247 0-.433-.057-.56-.17-.127-.113-.19-.273-.19-.48v-1.7c0-.207.063-.367.19-.48.127-.113.313-.17.56-.17h1.25v2.45c0 .133-.053.26-.16.38z" fill="#fff"/></svg>