<svg width="21" height="28" viewBox="0 0 21 28" xmlns="http://www.w3.org/2000/svg" fill="none"><path d="M19.6 0h-18.2c-.773 0-1.4.627-1.4 1.4v25.2c0 .773.627 1.4 1.4 1.4h18.2c.773 0 1.4-.627 1.4-1.4v-25.2c0-.773-.627-1.4-1.4-1.4z" fill="#FB6A6A"/><path fill-rule="evenodd" clip-rule="evenodd" d="M16.35 3c-.107 0-.193.03-.26.09-.06.053-.09.123-.09.21v.7h1v1h-1v3h1v1h-3v-1h1v-3h-1v-1h1v-.9c0-.34.097-.607.29-.8.193-.2.443-.3.75-.3h1.46v1h-1.15zm-11.55 1v.24c.207-.16.473-.24.8-.24h.7c.587 0 1.017.127 1.29.38.273.247.41.653.41 1.22v1.8c0 .56-.14.967-.42 1.22-.273.253-.7.38-1.28.38h-1.29v2h-1.01v-7h.8zm.85 1c-.22 0-.383.06-.49.18-.107.113-.16.237-.16.37l.01 2.45h1.24c.247 0 .433-.057.56-.17.127-.113.19-.273.19-.48v-1.7c0-.207-.063-.367-.19-.48-.127-.113-.313-.17-.56-.17h-.6zm5.55 4c.313 0 .58-.077.8-.23v.23h1v-7h-1v2h-1.24c-.58 0-1.07.127-1.35.38-.273.253-.41.66-.41 1.22v1.8c0 .567.137.977.41 1.23.273.247.703.37 1.29.37h.5zm.64-1.17c-.107.113-.27.17-.49.17h-.6c-.247 0-.433-.057-.56-.17-.127-.113-.19-.273-.19-.48v-1.7c0-.207.063-.367.19-.48.127-.113.313-.17.56-.17h1.25v2.45c0 .133-.053.26-.16.38z" fill="#fff"/><path opacity=".7" d="M10.534 13.147c.292.133.231.305.142 1.117-.092.838-.399 2.369-.992 3.875-.593 1.504-1.473 2.981-2.24 4.075-.766 1.094-1.422 1.805-1.922 2.216-.502.411-.849.52-1.076.556-.225.036-.327 0-.388-.11s-.082-.29-.03-.511c.051-.218.173-.474.519-.801.349-.328.921-.73 1.719-1.104.798-.374 1.82-.72 2.659-.958.839-.236 1.493-.365 2.065-.465.574-.101 1.064-.173 1.545-.21.481-.035.952-.035 1.412 0 .46.037.91.109 1.299.201.388.091.716.2 1.002.375.286.172.532.409.654.675.124.264.124.556.021.765-.102.21-.308.337-.542.411-.235.072-.501.09-.819 0-.316-.092-.686-.293-1.074-.557-.388-.265-.798-.593-1.329-1.104-.532-.51-1.187-1.203-1.739-1.878-.552-.675-1.003-1.331-1.31-1.887-.306-.556-.47-1.012-.603-1.467-.133-.457-.235-.912-.276-1.322-.041-.41-.022-.776.019-1.068.041-.29.103-.511.205-.657.102-.143.246-.218.348-.254l.225-.046c.061-.009.121-.027.215 0 .089.026.207.096.326.167" stroke="#fff" stroke-miterlimit="10" stroke-linejoin="round"/></svg>