<svg width="30" height="40" viewBox="0 0 30 40" xmlns="http://www.w3.org/2000/svg" fill="none"><path d="M28 0h-26c-1.105 0-2 .895-2 2v36c0 1.105.895 2 2 2h26c1.105 0 2-.895 2-2v-36c0-1.105-.895-2-2-2z" fill="#FB6A6A"/><path fill-rule="evenodd" clip-rule="evenodd" d="M20.35 5c-.107 0-.193.03-.26.09-.06.053-.09.123-.09.21v.7h1v1h-1v3h1v1h-3v-1h1v-3h-1v-1h1v-.9c0-.34.097-.607.29-.8.193-.2.443-.3.75-.3h1.46v1h-1.15zm-11.55 1v.24c.207-.16.473-.24.8-.24h.7c.587 0 1.017.127 1.29.38.273.247.41.653.41 1.22v1.8c0 .56-.14.967-.42 1.22-.273.253-.7.38-1.28.38h-1.29v2h-1.01v-7h.8zm.85 1c-.22 0-.383.06-.49.18-.107.113-.16.237-.16.37l.01 2.45h1.24c.247 0 .433-.057.56-.17.127-.113.19-.273.19-.48v-1.7c0-.207-.063-.367-.19-.48-.127-.113-.313-.17-.56-.17h-.6zm5.55 4c.313 0 .58-.077.8-.23v.23h1v-7h-1v2h-1.24c-.58 0-1.07.127-1.35.38-.273.253-.41.66-.41 1.22v1.8c0 .567.137.977.41 1.23.273.247.703.37 1.29.37h.5zm.64-1.17c-.107.113-.27.17-.49.17h-.6c-.247 0-.433-.057-.56-.17-.127-.113-.19-.273-.19-.48v-1.7c0-.207.063-.367.19-.48.127-.113.313-.17.56-.17h1.25v2.45c0 .133-.053.26-.16.38z" fill="#fff"/><path opacity=".7" d="M15.54 18.171c.337.155.267.355.163 1.303-.106.978-.461 2.764-1.144 4.521-.684 1.754-1.7 3.478-2.584 4.754-.884 1.277-1.641 2.106-2.218 2.585-.579.479-.979.607-1.241.649-.259.042-.377 0-.447-.129-.07-.128-.095-.339-.034-.596.059-.255.2-.552.599-.934.403-.383 1.063-.852 1.983-1.287.921-.436 2.1-.841 3.068-1.117s1.723-.425 2.383-.542c.662-.118 1.228-.201 1.782-.245.555-.041 1.099-.041 1.63 0 .531.044 1.049.127 1.499.235.447.106.826.233 1.156.437.329.201.613.478.754.787.143.308.143.649.025.893-.118.245-.355.393-.625.48-.271.084-.578.105-.944 0-.365-.108-.792-.342-1.239-.65-.448-.309-.921-.692-1.533-1.288-.614-.595-1.37-1.403-2.007-2.191-.637-.787-1.158-1.553-1.512-2.202-.353-.649-.542-1.181-.695-1.712-.153-.533-.271-1.064-.318-1.543-.047-.478-.025-.905.022-1.246.047-.339.119-.596.236-.767.118-.167.284-.255.402-.297l.259-.053c.07-.011.14-.032.248 0 .103.03.239.112.376.195" stroke="#fff" stroke-miterlimit="10" stroke-linejoin="round"/></svg>