<svg width="21" height="28" viewBox="0 0 21 28" xmlns="http://www.w3.org/2000/svg" fill="none"><path d="M19.6 0h-18.2c-.773 0-1.4.627-1.4 1.4v25.2c0 .773.627 1.4 1.4 1.4h18.2c.773 0 1.4-.627 1.4-1.4v-25.2c0-.773-.627-1.4-1.4-1.4z" fill="#ED9254"/><path opacity=".6" d="M5 13h3v3h-3v-3zm0 6h3v3h-3v-3zm6-6h3v3h-3v-3zm0 6h3v3h-3v-3zm-3-3h3v3h-3v-3zm0 6h3v3h-3v-3zm6-6h3v3h-3v-3zm0 6h3v3h-3v-3z" fill="#fff"/><path fill-rule="evenodd" clip-rule="evenodd" d="M4.8 4v.24c.207-.16.473-.24.8-.24h.7c.587 0 1.017.127 1.29.38.273.247.41.653.41 1.22v1.8c0 .56-.14.967-.42 1.22-.273.253-.7.38-1.28.38h-1.29v2h-1.01v-7h.8zm.85 1c-.22 0-.383.06-.49.18-.107.113-.16.237-.16.37l.01 2.45h1.24c.247 0 .433-.057.56-.17.127-.113.19-.273.19-.48v-1.7c0-.207-.063-.367-.19-.48-.127-.113-.313-.17-.56-.17h-.6zm4.35-1v.24c.207-.16.473-.24.8-.24h.6c.54 0 .94.127 1.2.38.267.253.4.66.4 1.22v3.4h-1v-3.35c0-.2-.06-.357-.18-.47-.113-.12-.27-.18-.47-.18h-.7c-.22 0-.383.06-.49.18-.107.113-.16.237-.16.37v3.45h-1v-5h1zm6.25 5c.293 0 .543-.067.75-.2v.2c0 1 0 1-1 1h-1.5v1h2.5c.552 0 1-.448 1-1v-6h-2.3c-.58 0-1.01.127-1.29.38-.273.253-.41.66-.41 1.22v1.8c0 .567.137.977.41 1.23.273.247.703.37 1.29.37h.55zm.59-1.17c-.107.113-.27.17-.49.17h-.6c-.247 0-.433-.057-.56-.17-.127-.113-.19-.273-.19-.48v-1.7c0-.207.063-.367.19-.48.127-.113.313-.17.56-.17h1.25v2.45c0 .133-.053.26-.16.38z" fill="#fff"/></svg>