<svg width="30" height="40" viewBox="0 0 30 40" xmlns="http://www.w3.org/2000/svg" fill="none"><path d="M28 0h-26c-1.105 0-2 .895-2 2v36c0 1.105.895 2 2 2h26c1.105 0 2-.895 2-2v-36c0-1.105-.895-2-2-2z" fill="#ED9254"/><path opacity=".7" fill-rule="evenodd" clip-rule="evenodd" d="M19.227 17.465c-.741-.307-1.425-.465-2.227-.465v6h6c0-.802-.158-1.486-.465-2.227-.307-.741-.757-1.415-1.325-1.983-.567-.567-1.241-1.018-1.983-1.325zm-4.227 7.535h6.667c0 .309-.02.648-.058 1-.142 1.3-.544 2.792-1.178 3.741-.806 1.206-1.951 2.146-3.291 2.701-1.34.555-2.815.7-4.237.417-1.423-.283-2.729-.981-3.755-2.007-1.026-1.026-1.724-2.332-2.007-3.755-.283-1.423-.138-2.897.417-4.237.555-1.34 1.495-2.485 2.701-3.291.949-.634 2.441-1.035 3.741-1.178.352-.039.691-.058 1-.058v6.667zm0 1h5.602c-.048.396-.122.813-.223 1.225-.194.793-.467 1.492-.78 1.96-.696 1.042-1.685 1.853-2.842 2.333-1.157.479-2.431.605-3.659.36-1.229-.244-2.357-.848-3.243-1.733-.886-.886-1.489-2.014-1.733-3.243s-.119-2.502.36-3.659 1.291-2.146 2.333-2.842c.469-.313 1.167-.587 1.96-.78.412-.101.829-.175 1.225-.223v6.602h1z" fill="#fff"/><path fill-rule="evenodd" clip-rule="evenodd" d="M20.27 10.67c.18.22.44.33.78.33h.95v-1h-.55c-.153 0-.267-.03-.34-.09-.073-.06-.11-.163-.11-.31v-2.6h1v-1h-1v-1h-1v1h-1v1h1v2.8c0 .36.09.65.27.87zm-10.47-4.43v-.24h-.8v7h1.01v-2h1.29c.58 0 1.007-.127 1.28-.38.28-.253.42-.66.42-1.22v-1.8c0-.567-.137-.973-.41-1.22-.273-.253-.703-.38-1.29-.38h-.7c-.327 0-.593.08-.8.24zm.36.94c.107-.12.27-.18.49-.18h.6c.247 0 .433.057.56.17.127.113.19.273.19.48v1.7c0 .207-.063.367-.19.48-.127.113-.313.17-.56.17h-1.24l-.01-2.45c0-.133.053-.257.16-.37zm4.63-.94v-.24h-.8v7h1.01v-2h1.29c.58 0 1.007-.127 1.28-.38.28-.253.42-.66.42-1.22v-1.8c0-.567-.137-.973-.41-1.22-.273-.253-.703-.38-1.29-.38h-.7c-.327 0-.593.08-.8.24zm.36.94c.107-.12.27-.18.49-.18h.6c.247 0 .433.057.56.17.127.113.19.273.19.48v1.7c0 .207-.063.367-.19.48-.127.113-.313.17-.56.17h-1.24l-.01-2.45c0-.133.053-.257.16-.37z" fill="#fff"/></svg>