<svg width="21" height="28" viewBox="0 0 21 28" xmlns="http://www.w3.org/2000/svg" fill="none"><path d="M19.6 0h-18.2c-.773 0-1.4.627-1.4 1.4v25.2c0 .773.627 1.4 1.4 1.4h18.2c.773 0 1.4-.627 1.4-1.4v-25.2c0-.773-.627-1.4-1.4-1.4z" fill="#ED9254"/><path fill-rule="evenodd" clip-rule="evenodd" d="M15.27 8.67c.18.22.44.33.78.33h.95v-1h-.55c-.153 0-.267-.03-.34-.09-.073-.06-.11-.163-.11-.31v-2.6h1v-1h-1v-1h-1v1h-1v1h1v2.8c0 .36.09.65.27.87zm-10.47-4.43v-.24h-.8v7h1.01v-2h1.29c.58 0 1.007-.127 1.28-.38.28-.253.42-.66.42-1.22v-1.8c0-.567-.137-.973-.41-1.22-.273-.253-.703-.38-1.29-.38h-.7c-.327 0-.593.08-.8.24zm.36.94c.107-.12.27-.18.49-.18h.6c.247 0 .433.057.56.17.127.113.19.273.19.48v1.7c0 .207-.063.367-.19.48-.127.113-.313.17-.56.17h-1.24l-.01-2.45c0-.133.053-.257.16-.37zm4.63-.94v-.24h-.8v7h1.01v-2h1.29c.58 0 1.007-.127 1.28-.38.28-.253.42-.66.42-1.22v-1.8c0-.567-.137-.973-.41-1.22-.273-.253-.703-.38-1.29-.38h-.7c-.327 0-.593.08-.8.24zm.36.94c.107-.12.27-.18.49-.18h.6c.247 0 .433.057.56.17.127.113.19.273.19.48v1.7c0 .207-.063.367-.19.48-.127.113-.313.17-.56.17h-1.24l-.01-2.45c0-.133.053-.257.16-.37z" fill="#fff"/><path opacity=".6" fill-rule="evenodd" clip-rule="evenodd" d="M10 13v6h6c0 .341-.028.675-.083 1-.476 2.838-2.944 5-5.917 5-3.314 0-6-2.686-6-6 0-2.973 2.162-5.441 5-5.917.325-.055.659-.083 1-.083zm-1 7h5.9c-.463 2.282-2.481 4-4.9 4-2.761 0-5-2.239-5-5 0-2.419 1.718-4.437 4-4.9v5.9zm2-2h5c0-2.761-2.239-5-5-5v5z" fill="#fff"/></svg>