<svg width="30" height="40" viewBox="0 0 30 40" xmlns="http://www.w3.org/2000/svg" fill="none"><path d="M28 0h-26c-1.105 0-2 .895-2 2v36c0 1.105.895 2 2 2h26c1.105 0 2-.895 2-2v-36c0-1.105-.895-2-2-2z" fill="#C3CAD1"/><path d="M9 11v-2.99h-1v-1.01h1v.5c.22-.18.687-.5 1-.5h2v1h-1.35c-.213 0-.373.07-.48.21-.107.133-.163.27-.17.41v2.38h1v1h-3v-1h1zM16.95 12c-.087 0-.183-.027-.29-.08-.1-.053-.187-.127-.26-.22-.153.2-.357.3-.61.3h-1.34c-.507 0-.877-.1-1.11-.3-.227-.207-.34-.557-.34-1.05v-.1c0-1.033.487-1.55 1.46-1.55h1.54v-.35c0-.207-.063-.367-.19-.48-.127-.113-.313-.17-.56-.17h-1.75v-1h1.8c.58 0 1.007.127 1.28.38.28.253.42.66.42 1.22v2.4c0 .1.037.177.11.23.08.047.21.07.39.07v.7h-.55zm-1.41-1c.2 0 .327-.047.38-.14.053-.093.08-.213.08-.36v-.5h-1.4c-.173 0-.317.057-.43.17-.113.113-.17.257-.17.43v-.1c0 .173.04.3.12.38.08.08.207.12.38.12h1.04zM19 11v-2.99h-1v-1.01h1v.5c.22-.18.687-.5 1-.5h2v1h-1.35c-.213 0-.373.07-.48.21-.107.133-.163.27-.17.41v2.38h1v1h-3v-1h1z" fill="#fff"/><path opacity=".6" fill-rule="evenodd" clip-rule="evenodd" d="M11 17h-4v17h15v-17h-4v1h3v15h-13v-15h3v-1zm1 0h3v1h2v1h-2v1h2v1h-2v1h2v1h-2v1h2v1h-2v1h2v1h-2v1h1v4h-3v-4h1v-2h-2v-1h2v-1h-2v-1h2v-1h-2v-1h2v-1h-2v-1h2v-1h-2v-1zm3 12h-1v2h1v-2z" fill="#fff"/></svg>