<svg width="30" height="40" viewBox="0 0 30 40" xmlns="http://www.w3.org/2000/svg" fill="none"><path d="M28 0h-26c-1.105 0-2 .895-2 2v36c0 1.105.895 2 2 2h26c1.105 0 2-.895 2-2v-36c0-1.105-.895-2-2-2z" fill="#75ADEA"/><path opacity=".5" d="M7.5 19h15c.276 0 .5.224.5.5s-.224.5-.5.5h-15c-.276 0-.5-.224-.5-.5s.224-.5.5-.5zm0 3h9c.276 0 .5.224.5.5s-.224.5-.5.5h-9c-.276 0-.5-.224-.5-.5s.224-.5.5-.5zm0 3h11c.276 0 .5.224.5.5s-.224.5-.5.5h-11c-.276 0-.5-.224-.5-.5s.224-.5.5-.5zm0 6h13c.276 0 .5.224.5.5s-.224.5-.5.5h-13c-.276 0-.5-.224-.5-.5s.224-.5.5-.5zm0-3h7c.276 0 .5.224.5.5s-.224.5-.5.5h-7c-.276 0-.5-.224-.5-.5s.224-.5.5-.5z" fill="#fff"/><path fill-rule="evenodd" clip-rule="evenodd" d="M15.05 12c-.34 0-.6-.11-.78-.33-.18-.22-.27-.51-.27-.87v-2.8h-1v-1h1v-1h1v1h2v1h-2v2.6c0 .147.037.25.11.31.073.06.187.09.34.09h1.55v1h-1.95zM20.35 6c-.107 0-.193.03-.26.09-.06.053-.09.123-.09.21v.7h1v1h-1v3h1v1h-3v-1h1v-3h-1v-1h1v-.9c0-.34.097-.607.29-.8.193-.2.443-.3.75-.3h1.46v1h-1.15z" fill="#fff"/><path d="M9 11v-2.99h-1v-1.01h1v.5c.22-.18.687-.5 1-.5h2v1h-1.35c-.213 0-.373.07-.48.21-.107.133-.163.27-.17.41v2.38h1v1h-3v-1h1z" fill="#fff"/></svg>