<svg width="21" height="28" viewBox="0 0 21 28" xmlns="http://www.w3.org/2000/svg" fill="none"><path d="M19.6 0h-18.2c-.773 0-1.4.627-1.4 1.4v25.2c0 .773.627 1.4 1.4 1.4h18.2c.773 0 1.4-.627 1.4-1.4v-25.2c0-.773-.627-1.4-1.4-1.4z" fill="#75ADEA"/><path opacity=".5" d="M3.5 13h14c.276 0 .5.224.5.5s-.224.5-.5.5h-14c-.276 0-.5-.224-.5-.5s.224-.5.5-.5zm0 3h9c.276 0 .5.224.5.5s-.224.5-.5.5h-9c-.276 0-.5-.224-.5-.5s.224-.5.5-.5zm0 3h11c.276 0 .5.224.5.5s-.224.5-.5.5h-11c-.276 0-.5-.224-.5-.5s.224-.5.5-.5zm0 3h7c.276 0 .5.224.5.5s-.224.5-.5.5h-7c-.276 0-.5-.224-.5-.5s.224-.5.5-.5z" fill="#fff"/><path fill-rule="evenodd" clip-rule="evenodd" d="M16.35 3c-.107 0-.193.03-.26.09-.06.053-.09.123-.09.21v.7h1v1h-1v3h1v1h-3v-1h1v-3h-1v-1h1v-.9c0-.34.097-.607.29-.8.193-.2.443-.3.75-.3h1.46v1h-1.15zm-5.3 6c-.34 0-.6-.11-.78-.33-.18-.22-.27-.51-.27-.87v-2.8h-1v-1h1v-1h1v1h2v1h-2v2.6c0 .147.037.25.11.31.073.06.187.09.34.09h1.55v1h-1.95zm-6.05-3.99v2.99h-1v1h3v-1h-1v-2.38c.007-.14.063-.277.17-.41.107-.14.267-.21.48-.21h1.35v-1h-2c-.313 0-.78.32-1 .5v-.5h-1v1.01h1z" fill="#fff"/></svg>