<svg width="30" height="40" viewBox="0 0 30 40" xmlns="http://www.w3.org/2000/svg" fill="none"><path d="M28 0h-26c-1.105 0-2 .895-2 2v36c0 1.105.895 2 2 2h26c1.105 0 2-.895 2-2v-36c0-1.105-.895-2-2-2z" fill="#ED9254"/><path opacity=".6" fill-rule="evenodd" clip-rule="evenodd" d="M8.5 18c-.276 0-.5.224-.5.5v9.167l2-2.667 5 5 4-3 3 2.25v-10.75c0-.276-.224-.5-.5-.5h-13zm-.5 13.5v-2.167l2.108-2.811 4.798 4.798 4.094-3.07 3 2.25v1c0 .276-.224.5-.5.5h-13c-.276 0-.5-.224-.5-.5zm-1-13v13.5c0 .552.448 1 1 1h14c.552 0 1-.448 1-1v-13.5c0-.828-.672-1.5-1.5-1.5h-13c-.828 0-1.5.672-1.5 1.5zm9 4c0-.828.672-1.5 1.5-1.5s1.5.672 1.5 1.5-.672 1.5-1.5 1.5-1.5-.672-1.5-1.5zm1.5-2.5c-1.381 0-2.5 1.119-2.5 2.5s1.119 2.5 2.5 2.5 2.5-1.119 2.5-2.5-1.119-2.5-2.5-2.5z" fill="#fff"/><path d="M13 6v-1h-1v1h1zM11 7v1h1v3h-1v1h3v-1h-1v-4h-2zM17.09 6.09c.067-.06.153-.09.26-.09h1.15v-1h-1.46c-.307 0-.557.1-.75.3-.193.193-.29.46-.29.8v.9h-1v1h1v3h-1v1h3v-1h-1v-3h1v-1h-1v-.7c0-.087.03-.157.09-.21zM21.09 6.09c.067-.06.153-.09.26-.09h1.15v-1h-1.46c-.307 0-.557.1-.75.3-.193.193-.29.46-.29.8v.9h-1v1h1v3h-1v1h3v-1h-1v-3h1v-1h-1v-.7c0-.087.03-.157.09-.21zM9.05 12c-.34 0-.6-.11-.78-.33-.18-.22-.27-.51-.27-.87v-2.8h-1v-1h1v-1h1v1h1v1h-1v2.6c0 .147.037.25.11.31.073.06.187.09.34.09h.55v1h-.95z" fill="#fff"/></svg>