<svg width="21" height="28" viewBox="0 0 21 28" xmlns="http://www.w3.org/2000/svg" fill="none"><path d="M19.6 0h-18.2c-.773 0-1.4.627-1.4 1.4v25.2c0 .773.627 1.4 1.4 1.4h18.2c.773 0 1.4-.627 1.4-1.4v-25.2c0-.773-.627-1.4-1.4-1.4z" fill="#ED9254"/><path opacity=".6" fill-rule="evenodd" clip-rule="evenodd" d="M6.5 14c-.276 0-.5.224-.5.5v6.167l2-1.667 4.5 4h2c.276 0 .5-.224.5-.5v-8c0-.276-.224-.5-.5-.5h-8zm-.5 8.5v-.167l2.108-1.811 2.892 2.478h-4.5c-.276 0-.5-.224-.5-.5zm-1-8v8.5c0 .552.448 1 1 1h9c.552 0 1-.448 1-1v-8.5c0-.828-.672-1.5-1.5-1.5h-8c-.828 0-1.5.672-1.5 1.5zm5 3c0-.828.672-1.5 1.5-1.5s1.5.672 1.5 1.5-.672 1.5-1.5 1.5-1.5-.672-1.5-1.5zm1.5-2.5c-1.381 0-2.5 1.119-2.5 2.5s1.119 2.5 2.5 2.5 2.5-1.119 2.5-2.5-1.119-2.5-2.5-2.5z" fill="#fff"/><path d="M9 3v-1h-1v1h1zM7 4v1h1v3h-1v1h3v-1h-1v-4h-2zM13.09 3.09c.067-.06.153-.09.26-.09h1.15v-1h-1.46c-.307 0-.557.1-.75.3-.193.193-.29.46-.29.8v.9h-1v1h1v3h-1v1h3v-1h-1v-3h1v-1h-1v-.7c0-.087.03-.157.09-.21zM17.09 3.09c.067-.06.153-.09.26-.09h1.15v-1h-1.46c-.307 0-.557.1-.75.3-.193.193-.29.46-.29.8v.9h-1v1h1v3h-1v1h3v-1h-1v-3h1v-1h-1v-.7c0-.087.03-.157.09-.21zM5.05 9c-.34 0-.6-.11-.78-.33-.18-.22-.27-.51-.27-.87v-2.8h-1v-1h1v-1h1v1h1v1h-1v2.6c0 .147.037.25.11.31.073.06.187.09.34.09h.55v1h-.95z" fill="#fff"/></svg>