<svg width="30" height="40" viewBox="0 0 30 40" xmlns="http://www.w3.org/2000/svg" fill="none"><path d="M28 0h-26c-1.105 0-2 .895-2 2v36c0 1.105.895 2 2 2h26c1.105 0 2-.895 2-2v-36c0-1.105-.895-2-2-2z" fill="#75ADEA"/><path opacity=".5" d="M7.5 19h15c.276 0 .5.224.5.5s-.224.5-.5.5h-15c-.276 0-.5-.224-.5-.5s.224-.5.5-.5zm0 3h9c.276 0 .5.224.5.5s-.224.5-.5.5h-9c-.276 0-.5-.224-.5-.5s.224-.5.5-.5zm0 3h11c.276 0 .5.224.5.5s-.224.5-.5.5h-11c-.276 0-.5-.224-.5-.5s.224-.5.5-.5zm0 6h13c.276 0 .5.224.5.5s-.224.5-.5.5h-13c-.276 0-.5-.224-.5-.5s.224-.5.5-.5zm0-3h7c.276 0 .5.224.5.5s-.224.5-.5.5h-7c-.276 0-.5-.224-.5-.5s.224-.5.5-.5z" fill="#fff"/><path fill-rule="evenodd" clip-rule="evenodd" d="M11.05 12c-.34 0-.6-.11-.78-.33-.18-.22-.27-.51-.27-.87v-2.8h-1v-1h1v-1h1v1h1v1h-1v2.6c0 .147.037.25.11.31.073.06.187.09.34.09h.55v1h-.95zm2.95 0h-1v-2h1v-1h-1v-2h1v1.5l1 .5 1-.5v-1.5h1v2h-1v1h1v2h-1v-1.5l-1-.5-1 .5v1.5zm5.27-.33c.18.22.44.33.78.33h.95v-1h-.55c-.153 0-.267-.03-.34-.09-.073-.06-.11-.163-.11-.31v-2.6h1v-1h-1v-1h-1v1h-1v1h1v2.8c0 .36.09.65.27.87z" fill="#fff"/></svg>