<svg width="21" height="28" viewBox="0 0 21 28" xmlns="http://www.w3.org/2000/svg" fill="none"><path d="M19.6 0h-18.2c-.773 0-1.4.627-1.4 1.4v25.2c0 .773.627 1.4 1.4 1.4h18.2c.773 0 1.4-.627 1.4-1.4v-25.2c0-.773-.627-1.4-1.4-1.4z" fill="#7594AB"/><path d="M14 10.64c0 .56-.027.98-.08 1.26-.053.267-.173.54-.36.82l-2.52 2.28v2h-2.04v-2.5l2.92-2.92c.053-.187.08-.44.08-.76v-.52c0-.413-.12-.733-.36-.96-.24-.227-.607-.34-1.1-.34h-2.54v-2h2.3c2.24 0 3.7 1 3.7 3v.64zm-3 8.36v2h-2v-2h2z" fill="#fff"/></svg>