<svg width="30" height="40" viewBox="0 0 30 40" xmlns="http://www.w3.org/2000/svg" fill="none"><path d="M28 0h-26c-1.105 0-2 .895-2 2v36c0 1.105.895 2 2 2h26c1.105 0 2-.895 2-2v-36c0-1.105-.895-2-2-2z" fill="#69C57F"/><path opacity=".5" d="M22 29v-3h-3v3h3zm0 1h-3v3h3v-3zm-14-1h6v-3h-6v3zm0 1v3h6v-3h-6zm7-1h3v-3h-3v3zm0 1v3h3v-3h-3zm7-5v-3h-3v3h3zm-14 0h6v-3h-6v3zm7 0h3v-3h-3v3zm7-4v-3h-14v3h6v-3h1v3h3v-3h1v3h3zm-15-4h16v17h-16v-17z" fill="#fff"/><path d="M10 12h-1v-2h1v-1h-1v-2h1v1.5l1 .5 1-.5v-1.5h1v2h-1v1h1v2h-1v-1.5l-1-.5-1 .5v1.5zM15.92 12c-.227 0-.527-.08-.7-.24-.167-.16-.22-.413-.22-.76v-5h-1v-1h2v5.7c0 .107.027.183.08.23.053.047.143.07.27.07h.65v1h-1.08zM21 10.75c0 .42-.13.733-.39.94-.253.207-.623.31-1.11.31h-1.5v-1h1.45c.18 0 .317-.037.41-.11.093-.08.14-.193.14-.34v-.1c0-.3-.143-.45-.43-.45h-.37c-.467 0-.667-.1-.9-.3-.227-.207-.3-.53-.3-.97v-.47c0-.447.087-.767.34-.96.253-.2.667-.3 1.16-.3h1.5v1h-1.45c-.167 0-.3.04-.4.12-.1.073-.15.183-.15.33v.11c0 .153.043.267.13.34.093.073.21.1.35.1h.15c.447 0 .787.12 1.02.34.233.213.35.533.35.96v.45z" fill="#fff"/></svg>