<svg width="21" height="28" viewBox="0 0 21 28" xmlns="http://www.w3.org/2000/svg" fill="none"><path d="M19.6 0h-18.2c-.773 0-1.4.627-1.4 1.4v25.2c0 .773.627 1.4 1.4 1.4h18.2c.773 0 1.4-.627 1.4-1.4v-25.2c0-.773-.627-1.4-1.4-1.4z" fill="#69C57F"/><path opacity=".5" d="M16 20h-3v2h3v-2zm-11 0v2h3v-2h-3zm4 0v2h3v-2h-3zm7-1v-2h-3v2h3zm-11 0h3v-2h-3v2zm4 0h3v-2h-3v2zm7-3v-2h-11v2h3v-2h1v2h3v-2h1v2h3zm-12-3h13v10h-13v-10z" fill="#fff"/><path d="M5 9h-1v-2h1v-1h-1v-2h1v1.5l1 .5 1-.5v-1.5h1v2h-1v1h1v2h-1v-1.5l-1-.5-1 .5v1.5zM10.92 9c-.227 0-.527-.08-.7-.24-.167-.16-.22-.413-.22-.76v-5h-1v-1h2v5.7c0 .107.027.183.08.23.053.047.143.07.27.07h.65v1h-1.08zM16 7.75c0 .42-.13.733-.39.94-.253.207-.623.31-1.11.31h-1.5v-1h1.45c.18 0 .317-.037.41-.11.093-.08.14-.193.14-.34v-.1c0-.3-.143-.45-.43-.45h-.37c-.467 0-.667-.1-.9-.3-.227-.207-.3-.53-.3-.97v-.47c0-.447.087-.767.34-.96.253-.2.667-.3 1.16-.3h1.5v1h-1.45c-.167 0-.3.04-.4.12-.1.073-.15.183-.15.33v.11c0 .153.043.267.13.34.093.073.21.1.35.1h.15c.447 0 .787.12 1.02.34.233.213.35.533.35.96v.45z" fill="#fff"/></svg>