<svg width="30" height="40" viewBox="0 0 30 40" xmlns="http://www.w3.org/2000/svg" fill="none"><path d="M28 0h-26c-1.105 0-2 .895-2 2v36c0 1.105.895 2 2 2h26c1.105 0 2-.895 2-2v-36c0-1.105-.895-2-2-2z" fill="#C3CAD1"/><path opacity=".6" fill-rule="evenodd" clip-rule="evenodd" d="M12 17h-4v17h15v-17h-4v1h3v15h-13v-15h3v-1zm1 0h3v1h2v1h-2v1h2v1h-2v1h2v1h-2v1h2v1h-2v1h2v1h-2v1h1v4h-3v-4h1v-2h-2v-1h2v-1h-2v-1h2v-1h-2v-1h2v-1h-2v-1h2v-1h-2v-1zm3 12h-1v2h1v-2z" fill="#fff"/><path d="M16 5v1h-1v-1h1zM14 8v-1h2v4h1v1h-3v-1h1v-3h-1zM13 12h-4v-1l2.5-3h-2.5v-1h4v1l-2.32 3h2.32v1z" fill="#fff"/><path fill-rule="evenodd" clip-rule="evenodd" d="M18.8 7v.24c.207-.16.473-.24.8-.24h.7c.587 0 1.017.127 1.29.38.273.247.41.653.41 1.22v1.8c0 .56-.14.967-.42 1.22-.273.253-.7.38-1.28.38h-1.29v2h-1.01v-7h.8zm.85 1c-.22 0-.383.06-.49.18-.107.113-.16.237-.16.37l.01 2.45h1.24c.247 0 .433-.057.56-.17.127-.113.19-.273.19-.48v-1.7c0-.207-.063-.367-.19-.48-.127-.113-.313-.17-.56-.17h-.6z" fill="#fff"/></svg>