<svg width="32" height="32" viewBox="0 0 32 32" fill="none" xmlns="http://www.w3.org/2000/svg">
<g clip-path="url(#clip0)">
<circle cx="16" cy="16" r="16" fill="#B3B3B3"/>
<path d="M6 29.0976C7.00019 28.2658 8.25775 27.7422 9.43548 27.2519C11.0529 26.5785 12.5198 25.9677 12.9626 24.7077C13.0341 23.8722 13.0289 23.2335 13.0231 22.5285C13.0215 22.3291 13.0198 22.1245 13.0198 21.9086C12.56 21.654 11.7057 20.0297 11.5676 18.6587C11.207 18.6274 10.6392 18.2551 10.4721 16.785C10.383 15.9958 10.7398 15.5517 10.9564 15.412C9.73713 10.4454 10.408 6.10837 15.9695 6C17.3596 6 18.4292 6.39303 18.847 7.16956C22.906 7.76661 21.6874 13.5444 21.1007 15.412C21.3181 15.5517 21.6749 15.9958 21.585 16.785C21.4186 18.2551 20.8502 18.6274 20.4896 18.6587C20.3508 20.0303 19.5292 21.654 19.0706 21.9086C19.0706 22.1267 19.0688 22.3333 19.0671 22.5346C19.0612 23.2371 19.0558 23.8745 19.1271 24.7077C19.5698 25.9675 21.0312 26.5782 22.642 27.2515C23.7902 27.7314 25.0144 28.2431 26 29.0443C23.3143 31.5061 19.8136 32.9965 15.9843 33H15.9573C12.1557 32.9965 8.67794 31.5276 6 29.0976Z" fill="white"/>
</g>
<defs>
<clipPath id="clip0">
<rect width="32" height="32" fill="white"/>
</clipPath>
</defs>
</svg>
