<svg width="21" height="18" viewBox="0 0 21 18" fill="none" xmlns="http://www.w3.org/2000/svg">
<path d="M4.01 16C4.01 14.9 4.9 14 6 14C7.1 14 8 14.9 8 16C8 17.1 7.1 18 6 18C4.9 18 4.01 17.1 4.01 16Z" fill="white"/>
<path d="M0 2V0H3.27L4.21 2H19.082C19.8253 2 20.3088 2.78231 19.9764 3.44721L16.2528 10.8944C15.914 11.572 15.2215 12 14.4639 12H5.89222C4.96036 12 4.15198 11.3564 3.94311 10.4483L2 2H0Z" fill="white"/>
<path d="M13.01 16C13.01 14.9 13.9 14 15 14C16.1 14 17 14.9 17 16C17 17.1 16.1 18 15 18C13.9 18 13.01 17.1 13.01 16Z" fill="white"/>
</svg>
