<svg width="16" height="16" viewBox="0 0 16 16" fill="none" xmlns="http://www.w3.org/2000/svg">
<path fill-rule="evenodd" clip-rule="evenodd" d="M3 11L3 13L13 13L13 11L12 11L12 9L13 9C14.1046 9 15 9.89543 15 11L15 13C15 14.1046 14.1046 15 13 15L3 15C1.89543 15 1 14.1046 1 13L1 11C1 9.89543 1.89543 9 3 9L4 9L4 11L3 11ZM7.94975 11L12.8995 6.05025L11.4853 4.63604L8.89949 7.22183L8.89949 1.00002L6.89949 1.00002L6.89949 7.12132L4.41421 4.63604L3 6.05025L6.53553 9.58579L6.89949 9.94975L6.89949 10L6.94977 10L7.94975 11Z" fill="#2585F5"/>
</svg>
