<svg width="126" height="32" viewBox="0 0 126 32" fill="none" xmlns="http://www.w3.org/2000/svg">
<path fill-rule="evenodd" clip-rule="evenodd" d="M0 0H32.0003V32H0V0ZM14.2222 7.11112H17.7778V24.8889H14.2222V7.11112Z" fill="#FF5E1A"/>
<path d="M40.9102 11.7049H44.3022V24.9288H40.9102V11.7049Z" fill="#1A1A17"/>
<path d="M40.9102 7.1084H44.3022V10.255H40.9102V7.1084Z" fill="#1A1A17"/>
<path d="M57.9682 15.6868H54.7975C54.6499 15.1133 54.3343 14.6549 53.851 14.3108C53.3675 13.9663 52.7408 13.7944 51.9707 13.7944C51.3316 13.7944 50.8155 13.9095 50.4222 14.1385C50.0291 14.3682 49.8323 14.6792 49.8323 15.0726C49.8323 15.8265 50.4222 16.3347 51.6022 16.5966L53.372 16.9899C54.1584 17.1703 54.7933 17.3378 55.2768 17.4936C55.7599 17.6494 56.2556 17.8745 56.7638 18.1697C57.2717 18.4644 57.6444 18.8416 57.8822 19.3001C58.1195 19.759 58.2385 20.3161 58.2385 20.9714C58.2385 22.2496 57.6772 23.2818 56.5548 24.0685C55.4324 24.8549 54.0846 25.2483 52.5114 25.2483C50.8563 25.2483 49.4799 24.8346 48.3821 24.0069C47.284 23.1799 46.6531 22.0284 46.4897 20.5537H49.7585C49.8569 21.2256 50.1434 21.7665 50.619 22.176C51.0941 22.5855 51.7578 22.7903 52.6098 22.7903C53.3474 22.7903 53.9288 22.6593 54.355 22.3969C54.7808 22.135 54.9941 21.7665 54.9941 21.2912C54.9941 20.8486 54.8054 20.5087 54.4288 20.2709C54.0515 20.0339 53.5193 19.8328 52.831 19.6691L50.8647 19.2511C49.5209 18.9726 48.4967 18.53 47.7922 17.9237C47.0875 17.3174 46.7354 16.441 46.7354 15.294C46.7354 14.147 47.2676 13.2045 48.3329 12.467C49.3979 11.7297 50.6679 11.3607 52.1429 11.3607C53.6338 11.3607 54.9242 11.7215 56.0141 12.4424C57.1037 13.1638 57.7552 14.2452 57.9682 15.6868Z" fill="#1A1A17"/>
<path fill-rule="evenodd" clip-rule="evenodd" d="M66.2266 25.2483C68.0288 25.2483 69.5853 24.6422 70.8966 23.4294C72.2074 22.217 72.8629 20.5211 72.8629 18.3414C72.8629 16.1458 72.2074 14.4417 70.8966 13.2288C69.5853 12.0165 68.0288 11.4099 66.2266 11.4099C64.4238 11.4099 62.8673 12.0165 61.5565 13.2288C60.2453 14.4417 59.59 16.1458 59.59 18.3414C59.59 20.5211 60.2453 22.217 61.5565 23.4294C62.8673 24.6422 64.4238 25.2483 66.2266 25.2483ZM66.2266 14.0642C67.1932 14.0642 67.9674 14.4374 68.5494 15.1829C69.1306 15.9289 69.4218 16.9814 69.4218 18.3411C69.4218 19.7016 69.1306 20.7502 68.5494 21.4877C67.9674 22.225 67.1932 22.5937 66.2266 22.5937C65.2594 22.5937 64.4852 22.225 63.9037 21.4877C63.322 20.7499 63.0313 19.7016 63.0313 18.3411C63.0313 16.9814 63.322 15.9286 63.9037 15.1829C64.4852 14.4372 65.2594 14.0642 66.2266 14.0642Z" fill="#1A1A17"/>
<path d="M83.1616 24.9287V23.1836C82.7844 23.8553 82.2561 24.3677 81.5762 24.7198C80.8961 25.0721 80.1385 25.2483 79.3026 25.2483C76.3367 25.2483 74.8537 23.5196 74.8537 20.0619V11.7048H78.2458V19.3244C78.2458 20.3571 78.3889 21.1481 78.6759 21.6967C78.9624 22.2456 79.5402 22.5199 80.4086 22.5199C81.4411 22.5199 82.1577 22.1676 82.5595 21.4628C82.9608 20.7589 83.1616 19.8003 83.1616 18.5871V11.7048H86.5537V24.9287H83.1616Z" fill="#1A1A17"/>
<path d="M97.1719 14.9739V11.7786C96.877 11.7458 96.6312 11.7294 96.4344 11.7292C94.8126 11.7292 93.6486 12.491 92.9442 14.0153V11.7048H89.6013V24.9287H92.9934V17.9972C92.9934 16.8338 93.227 16.027 93.6939 15.5763C94.161 15.1258 94.8531 14.9001 95.7707 14.9001C96.3768 14.9001 96.8439 14.9245 97.1719 14.9739Z" fill="#1A1A17"/>
<path d="M104.693 11.4099C106.184 11.4099 107.499 11.8239 108.638 12.6511C109.777 13.4788 110.461 14.671 110.691 16.2275H107.446C107.315 15.5884 106.987 15.0644 106.463 14.6546C105.938 14.2454 105.349 14.0401 104.693 14.0401C103.775 14.0401 103.018 14.4173 102.42 15.171C101.821 15.9246 101.522 16.965 101.522 18.2925C101.522 19.6527 101.817 20.7134 102.407 21.4756C102.997 22.2374 103.767 22.6181 104.718 22.6181C105.357 22.6181 105.938 22.4382 106.463 22.0776C106.987 21.7176 107.356 21.1682 107.569 20.4307H110.814C110.453 22.1184 109.699 23.3434 108.552 24.1052C107.405 24.8671 106.07 25.2483 104.546 25.2483C102.596 25.2483 101.027 24.6055 99.8387 23.3188C98.6507 22.0326 98.0568 20.3733 98.0568 18.3414C98.0568 16.3095 98.671 14.6464 99.9003 13.3518C101.129 12.0575 102.727 11.4099 104.693 11.4099Z" fill="#1A1A17"/>
<path fill-rule="evenodd" clip-rule="evenodd" d="M115.459 19.2508H125.217C125.282 16.9076 124.725 15.0152 123.546 13.5735C122.366 12.1318 120.76 11.4102 118.728 11.4102C116.778 11.4102 115.184 12.0577 113.947 13.3521C112.71 14.647 112.091 16.2857 112.091 18.2681C112.091 20.2508 112.698 21.9102 113.91 23.2455C115.123 24.5811 116.762 25.2486 118.826 25.2486C120.481 25.2486 121.833 24.8428 122.882 24.0317C123.93 23.2204 124.66 22.2416 125.07 21.0944H121.579C120.973 22.1107 120.047 22.6183 118.802 22.6183C117.933 22.6183 117.183 22.3276 116.553 21.7459C115.922 21.1639 115.557 20.3325 115.459 19.2508ZM116.639 14.6298C117.261 14.1383 117.95 13.8925 118.703 13.8925C119.523 13.8925 120.231 14.1383 120.83 14.6298C121.428 15.1215 121.743 15.8834 121.776 16.9158H115.508C115.639 15.8831 116.016 15.1213 116.639 14.6298Z" fill="#1A1A17"/>
</svg>
