<?xml version="1.0" encoding="UTF-8"?>
<svg width="162px" height="32px" viewBox="0 0 162 32" version="1.1" xmlns="http://www.w3.org/2000/svg" xmlns:xlink="http://www.w3.org/1999/xlink">
    <!-- Generator: Sketch 50.2 (55047) - http://www.bohemiancoding.com/sketch -->
    <title>logo</title>
    <desc>Created with Sketch.</desc>
    <defs></defs>
    <g id="ЦЗ" stroke="none" stroke-width="1" fill="none" fill-rule="evenodd">
        <g id="Лицевой-счет-Copy" transform="translate(-165.000000, -56.000000)">
            <g id="header-copy-4">
                <g id="new-header-copy">
                    <g id="logo" transform="translate(165.000000, 56.000000)">
                        <g id="logo_etp">
                            <rect id="bg" fill="#D8D8D8" opacity="0" x="0" y="0" width="32" height="32"></rect>
                            <path d="M26.596742,18.6728185 C26.7679278,19.1899789 27.2132482,20.501115 25.5013903,21.6400636 C25.7752282,22.812792 24.37103,24.0548737 23.0700773,24.6413874 C23.0362555,25.5038196 20.4681719,27.7458444 16.0514598,27.7458444 C11.6344509,27.7458444 9.13579102,25.9175479 9.13579102,25.9175479 C9.92259298,26.2625208 12.9357003,27.1252519 15.7090882,27.1252519 C19.9546146,27.0564965 21.4611682,25.2969554 21.4611682,25.2969554 C21.4611682,25.2969554 18.61895,26.1593876 14.4766691,25.9522246 C10.7788186,25.8147137 6.7391899,23.6752242 6.7391899,23.6752242 C6.7391899,23.6752242 6.29327613,23.2961725 6.39652163,23.020553 C7.01273116,23.2614959 9.7172887,24.6070097 14.0313487,25.1591457 C18.3451121,25.7109827 21.632354,24.2623357 21.632354,24.2623357 C21.632354,24.2623357 21.1873303,23.5717921 20.776425,23.3655258 C18.4136457,23.9514416 15.1614123,23.9861183 11.7029846,23.46836 C8.24485352,22.9511997 4.88967129,20.3982808 4.88967129,20.3982808 C4.88967129,20.3982808 4.44464756,19.9154981 4.78672247,19.7086339 C5.71148177,20.260471 8.34750566,22.0543897 12.6274472,22.7446344 C16.9070921,23.4342813 19.2013377,22.916523 19.7145984,22.5712512 C19.2013377,22.2612539 14.9896332,21.6744413 11.6341542,20.9151422 C8.27867532,20.156441 6.01914151,18.8802805 4.99202675,17.948495 C3.96491198,17.0176063 3.86255652,15.4643316 4.5811215,14.3956331 C4.51288453,14.0509591 3.82754799,12.8432551 5.6432448,11.9120675 C5.60823627,11.2562005 4.71818881,10.0144177 7.52569517,8.70328164 C7.76600799,7.11652597 10.4702688,5.11544412 14.7843289,4.56360709 C19.1328041,3.97769128 21.3579227,5.90882196 21.3579227,5.90882196 C21.3579227,5.90882196 18.8589661,4.97763433 15.2296493,5.25355285 C11.8741704,5.25355285 9.06666401,7.94398258 9.06666401,7.94398258 C9.06666401,7.94398258 10.7785219,6.70249873 15.9482143,6.21911819 C21.1520251,6.01285191 23.8912945,7.7377163 23.8912945,7.7377163 L24.0965987,8.08239025 C23.1041958,7.7377163 19.7487169,6.97871618 16.0849849,7.01339283 C12.4221429,7.04777055 8.82664787,9.22133884 8.82664787,9.22133884 L8.89488485,9.66974379 C8.89488485,9.66974379 8.79282607,9.98063789 9.13519766,9.87660794 C9.47756925,9.7734748 12.3874311,8.01363482 17.5918352,8.11736583 C22.795646,8.22079791 25.4663818,9.91098566 25.4663818,9.91098566 C25.4663818,9.91098566 25.8087534,10.3943662 25.6378642,10.3943662 C23.4803892,9.56631172 20.2619776,8.84168931 17.043566,8.84168931 C13.8251544,8.84168931 10.2305494,10.4977983 10.2305494,10.4977983 L11.6000358,11.0496353 C11.6000358,11.0496353 13.9622217,10.0493933 18.8924913,10.187502 C23.8227608,10.3250129 26.8020463,12.7744997 26.8020463,12.7744997 C26.8020463,12.7744997 26.9044018,12.8432551 26.8702833,13.0504182 C24.5760376,11.9120675 21.3238042,11.084013 18.8924913,10.9112276 C16.4617716,10.7390401 13.8251544,11.532119 13.8251544,11.532119 C13.8251544,11.532119 16.3588228,11.8773909 20.4678753,12.7398231 C24.8498756,13.3953911 27.1097061,16.1207964 27.1097061,16.1207964 C27.8635763,17.2932259 27.007944,18.052226 26.596742,18.6728185 Z M25.5007969,19.5531869 C25.5007969,19.5531869 24.439267,20.1229601 24.5763343,20.1229601 C24.7136983,20.2951476 25.0560699,20.6747972 25.0560699,20.6747972 C25.8259609,20.4332564 25.5007969,19.5531869 25.5007969,19.5531869 Z M22.9333067,23.676121 C23.6180499,23.227716 23.858066,22.8830421 23.926303,22.5033926 C23.6859902,22.6409034 22.1797332,22.9174198 22.3850375,22.9517975 C22.5909351,22.9861752 22.9333067,23.676121 22.9333067,23.676121 Z M23.6524651,21.5028516 C23.5159911,21.020069 22.8306546,20.6747972 22.8306546,20.6747972 C22.8306546,20.6747972 21.2558639,21.3303652 20.3311046,21.4340962 C21.1190933,21.7790691 21.5297019,22.2621507 21.5297019,22.2621507 C21.5294052,22.2621507 23.3100935,21.7443924 23.6524651,21.5028516 Z M5.31244383,15.6726904 C5.31244383,15.6726904 5.01576134,16.2478445 5.44951114,16.707609 C5.88266757,17.1673736 7.1153833,18.4318756 11.3840509,19.444374 C15.6524218,20.4565734 18.7794552,20.8703017 21.1306639,20.1573378 C21.3131237,20.0425462 21.0392857,19.9959121 21.0392857,19.9959121 C21.0392857,19.9959121 15.1732796,18.7780442 13.3469022,18.4557905 C11.5205248,18.1329389 6.86438991,17.0986182 5.63167418,15.6269531 L5.31244383,15.6726904 Z M5.71177846,13.6716086 C6.00252729,13.3786507 6.55020316,13.1197715 6.55020316,13.1197715 C6.55020316,13.1197715 6.36210646,12.9990011 6.20812825,12.6366899 C5.81413391,12.7577593 5.71177846,13.6716086 5.71177846,13.6716086 Z M19.5327321,18.1792741 C20.9019217,18.4782107 23.344212,19.3523015 23.344212,19.3523015 C23.344212,19.3523015 24.7365429,18.7771474 24.6911504,18.6850749 C24.6451647,18.5924045 23.5044205,17.9951291 21.8376583,17.4663102 C20.1714894,16.9377903 12.86687,15.5578987 11.2698281,15.2586632 C9.67159959,14.9597265 7.61707338,13.8787716 7.61707338,13.8787716 L6.63564772,14.6141558 C7.20646482,15.3958751 9.87690387,16.2015093 9.87690387,16.2015093 C11.6804367,16.7987847 18.094712,17.8343012 19.5327321,18.1792741 Z M6.8578629,10.687623 L6.84065531,10.9635416 C6.89227807,10.6705837 7.79893974,10.48046 7.79893974,10.48046 L7.45686484,9.85956856 L6.8578629,10.687623 Z M7.43965725,11.9634846 C7.64496153,12.2223637 7.91909615,12.4298258 7.91909615,12.4298258 C8.55221657,11.9814208 9.11710003,11.8433121 9.63095409,11.7225417 C9.34020526,11.6014723 8.58663174,11.1874451 8.58663174,11.1874451 C8.58663174,11.1874451 7.55951698,11.6358501 7.43965725,11.9634846 Z M9.44256071,13.1194726 C9.71639865,13.2115451 11.4742424,13.8778748 13.2549307,14.2001285 C17.1577888,14.7985997 20.4287132,15.415007 22.2473768,15.9937484 C24.4161258,16.684292 25.6948273,17.7425277 25.6948273,17.7425277 C25.6948273,17.7425277 25.7173752,17.60412 25.739923,16.5925184 C23.7770717,14.3845724 16.2446001,13.3263367 14.7611876,13.0501193 C13.2771818,12.7744997 11.1544187,12.2914181 11.1544187,12.2914181 L9.44256071,13.1194726 Z" id="Shape" fill="#316DA4"></path>
                            <path d="M0.0175259342,16.1178049 C0.0175259342,7.34796436 7.1271183,0.238892531 15.8982696,0.237396073 C24.6694208,0.238892531 31.7793125,7.34796436 31.7793125,16.1178049 C31.7793125,24.8876455 24.6697202,31.9967173 15.8985689,31.9982138 C7.12741762,31.9967173 0.0175259342,24.8876455 0.0175259342,16.1178049 Z M0.679635159,16.1178049 C0.696397418,24.5213126 7.49409204,31.3194205 15.8988682,31.3337865 C24.3039437,31.3194205 31.102237,24.5213126 31.1172033,16.1178049 C31.102237,7.7142972 24.3036444,0.916787857 15.8988682,0.901823281 C7.49349338,0.916787857 0.695798766,7.7142972 0.679635159,16.1178049 Z" id="Shape" fill="#316DA4"></path>
                        </g>
                        <path d="M50.854,10.904 L47.7,10.904 L47.7,22 L45.306,22 L45.306,10.904 L42.152,10.904 L42.152,8.7 L50.854,8.7 L50.854,10.904 Z M51.481,17.25 C51.481,15.5653249 51.81033,14.3113374 52.469,13.488 C53.12767,12.6646625 54.0459941,12.253 55.224,12.253 C56.490673,12.253 57.4343302,12.6709958 58.055,13.507 C58.6756698,14.3430042 58.986,15.5906584 58.986,17.25 C58.986,18.9473418 58.65667,20.2044959 57.998,21.0215 C57.33933,21.8385041 56.4146726,22.247 55.224,22.247 C52.7286542,22.247 51.481,20.58135 51.481,17.25 Z M53.818,17.25 C53.818,18.2000048 53.9256656,18.9346641 54.141,19.454 C54.3563344,19.9733359 54.7173308,20.233 55.224,20.233 C55.7053357,20.233 56.0631655,20.0081689 56.2975,19.5585 C56.5318345,19.1088311 56.649,18.3393388 56.649,17.25 C56.649,16.2746618 56.5413344,15.5336692 56.326,15.027 C56.1106656,14.5203308 55.7433359,14.267 55.224,14.267 C54.7806645,14.267 54.4355012,14.4918311 54.1885,14.9415 C53.9414988,15.3911689 53.818,16.1606612 53.818,17.25 Z M60.278,12.5 L61.969,12.5 L62.197,13.583 L62.254,13.583 C62.5453348,13.1269977 62.8714982,12.794501 63.2325,12.5855 C63.5935018,12.376499 64.0399973,12.272 64.572,12.272 C65.5346715,12.272 66.2598309,12.636163 66.7475,13.3645 C67.2351691,14.092837 67.479,15.3056582 67.479,17.003 C67.479,18.7003418 67.175003,20.0018288 66.567,20.9075 C65.958997,21.8131712 65.0786724,22.266 63.926,22.266 C63.6219985,22.266 63.3623344,22.2406669 63.147,22.19 C62.9316656,22.1393331 62.7290009,22.0570006 62.539,21.943 L62.539,25.8 L60.278,25.8 L60.278,12.5 Z M62.539,19.872 C62.6656673,19.9986673 62.8081659,20.0936663 62.9665,20.157 C63.1248341,20.2203337 63.3306654,20.252 63.584,20.252 C64.0906692,20.252 64.4769987,20.0018358 64.743,19.5015 C65.0090013,19.0011642 65.142,18.1493393 65.142,16.946 C65.142,16.0466622 65.0406677,15.3785022 64.838,14.9415 C64.6353323,14.5044978 64.299669,14.286 63.831,14.286 C63.1976635,14.286 62.7670011,14.6596629 62.539,15.407 L62.539,19.872 Z M73.92,14.571 L71.032,14.571 L71.032,22 L68.771,22 L68.771,12.5 L73.92,12.5 L73.92,14.571 Z M74.3,17.25 C74.3,15.5653249 74.62933,14.3113374 75.288,13.488 C75.94667,12.6646625 76.8649941,12.253 78.043,12.253 C79.309673,12.253 80.2533302,12.6709958 80.874,13.507 C81.4946698,14.3430042 81.805,15.5906584 81.805,17.25 C81.805,18.9473418 81.47567,20.2044959 80.817,21.0215 C80.15833,21.8385041 79.2336726,22.247 78.043,22.247 C75.5476542,22.247 74.3,20.58135 74.3,17.25 Z M76.637,17.25 C76.637,18.2000048 76.7446656,18.9346641 76.96,19.454 C77.1753344,19.9733359 77.5363308,20.233 78.043,20.233 C78.5243357,20.233 78.8821655,20.0081689 79.1165,19.5585 C79.3508345,19.1088311 79.468,18.3393388 79.468,17.25 C79.468,16.2746618 79.3603344,15.5336692 79.145,15.027 C78.9296656,14.5203308 78.5623359,14.267 78.043,14.267 C77.5996645,14.267 77.2545012,14.4918311 77.0075,14.9415 C76.7604988,15.3911689 76.637,16.1606612 76.637,17.25 Z M83.097,12.519 C83.4516684,12.4809998 83.9044972,12.4461668 84.4555,12.4145 C85.0065028,12.3828332 85.5796637,12.367 86.175,12.367 C87.3656726,12.367 88.2079975,12.5633314 88.702,12.956 C89.1960025,13.3486686 89.443,13.943996 89.443,14.742 C89.443,15.1980023 89.3353344,15.6318313 89.12,16.0435 C88.9046656,16.4551687 88.5753356,16.755999 88.132,16.946 L88.132,17.022 C89.208672,17.3133348 89.747,18.0733272 89.747,19.302 C89.747,20.2520048 89.443003,20.961331 88.835,21.43 C88.226997,21.898669 87.2390068,22.133 85.871,22.133 C85.4276645,22.133 84.9431693,22.1203335 84.4175,22.095 C83.8918307,22.0696665 83.4516684,22.0316669 83.097,21.981 L83.097,12.519 Z M85.301,20.176 C85.4276673,20.2013335 85.5479994,20.2171666 85.662,20.2235 C85.7760006,20.2298334 85.9153325,20.233 86.08,20.233 C86.5740025,20.233 86.9318322,20.1348343 87.1535,19.9385 C87.3751678,19.7421657 87.486,19.4350021 87.486,19.017 C87.486,18.6749983 87.391001,18.399501 87.201,18.1905 C87.0109991,17.981499 86.6880023,17.877 86.232,17.877 L85.301,17.877 L85.301,20.176 Z M86.232,16.376 C86.5360015,16.376 86.7861657,16.2810009 86.9825,16.091 C87.1788343,15.900999 87.277,15.6476682 87.277,15.331 C87.277,14.9636648 87.1978341,14.6945009 87.0395,14.5235 C86.8811659,14.3524991 86.5866688,14.267 86.156,14.267 C85.9406656,14.267 85.7696673,14.2701666 85.643,14.2765 C85.5163327,14.2828334 85.4023338,14.2923333 85.301,14.305 L85.301,16.376 L86.232,16.376 Z M93.3,20.005 C93.5660013,20.0810004 93.8383319,20.119 94.117,20.119 C94.5223354,20.119 94.8104991,20.014501 94.9815,19.8055 C95.1525009,19.596499 95.238,19.2513357 95.238,18.77 C95.238,18.3266645 95.1556675,17.9973344 94.991,17.782 C94.8263325,17.5666656 94.5413354,17.459 94.136,17.459 C93.8446652,17.459 93.5660013,17.4969996 93.3,17.573 L93.3,20.005 Z M93.3,15.882 C93.5533346,15.8313331 93.8129987,15.7965001 94.079,15.7775 C94.3450013,15.7584999 94.5856656,15.749 94.801,15.749 C95.3203359,15.749 95.7573316,15.8218326 96.112,15.9675 C96.4666684,16.1131674 96.7516656,16.3189987 96.967,16.585 C97.1823344,16.8510013 97.3374995,17.1644982 97.4325,17.5255 C97.5275005,17.8865018 97.575,18.2759979 97.575,18.694 C97.575,19.2640028 97.5116673,19.7643312 97.385,20.195 C97.2583327,20.6256688 97.0493348,20.9834986 96.758,21.2685 C96.4666652,21.5535014 96.086669,21.7688326 95.618,21.9145 C95.149331,22.0601674 94.5666701,22.133 93.87,22.133 C93.261997,22.133 92.7268356,22.1203335 92.2645,22.095 C91.8021644,22.0696665 91.3936684,22.0380002 91.039,22 L91.039,12.5 L93.3,12.5 L93.3,15.882 Z M98.392,12.5 L100.653,12.5 L100.653,22 L98.392,22 L98.392,12.5 Z M106.923,17.858 L107.094,16.319 L107.037,16.319 L106.334,17.934 L103.788,22 L102.268,22 L102.268,12.5 L104.529,12.5 L104.529,16.813 L104.358,18.295 L104.415,18.295 L105.099,16.718 L107.664,12.5 L109.184,12.5 L109.184,22 L106.923,22 L106.923,17.858 Z M104.985,8.624 C105.023,9.10533574 105.124333,9.45366559 105.289,9.669 C105.453667,9.88433441 105.662665,9.992 105.916,9.992 C106.182001,9.992 106.394166,9.88750105 106.5525,9.6785 C106.710834,9.46949895 106.821666,9.12433574 106.885,8.643 L108.595,9.061 C108.455666,9.92233764 108.135836,10.552498 107.6355,10.9515 C107.135164,11.350502 106.543003,11.55 105.859,11.55 C105.529665,11.55 105.206668,11.5056671 104.89,11.417 C104.573332,11.3283329 104.288335,11.1858343 104.035,10.9895 C103.781665,10.7931657 103.569501,10.5366683 103.3985,10.22 C103.227499,9.90333175 103.116667,9.51066901 103.066,9.042 L104.985,8.624 Z M119.178,14.571 L116.974,14.571 L116.974,22 L114.713,22 L114.713,12.5 L121.439,12.5 L121.439,22 L119.178,22 L119.178,14.571 Z M122.731,17.25 C122.731,15.5653249 123.06033,14.3113374 123.719,13.488 C124.37767,12.6646625 125.295994,12.253 126.474,12.253 C127.740673,12.253 128.68433,12.6709958 129.305,13.507 C129.92567,14.3430042 130.236,15.5906584 130.236,17.25 C130.236,18.9473418 129.90667,20.2044959 129.248,21.0215 C128.58933,21.8385041 127.664673,22.247 126.474,22.247 C123.978654,22.247 122.731,20.58135 122.731,17.25 Z M125.068,17.25 C125.068,18.2000048 125.175666,18.9346641 125.391,19.454 C125.606334,19.9733359 125.967331,20.233 126.474,20.233 C126.955336,20.233 127.313165,20.0081689 127.5475,19.5585 C127.781835,19.1088311 127.899,18.3393388 127.899,17.25 C127.899,16.2746618 127.791334,15.5336692 127.576,15.027 C127.360666,14.5203308 126.993336,14.267 126.474,14.267 C126.030664,14.267 125.685501,14.4918311 125.4385,14.9415 C125.191499,15.3911689 125.068,16.1606612 125.068,17.25 Z M131.528,12.5 L133.219,12.5 L133.447,13.583 L133.504,13.583 C133.795335,13.1269977 134.121498,12.794501 134.4825,12.5855 C134.843502,12.376499 135.289997,12.272 135.822,12.272 C136.784671,12.272 137.509831,12.636163 137.9975,13.3645 C138.485169,14.092837 138.729,15.3056582 138.729,17.003 C138.729,18.7003418 138.425003,20.0018288 137.817,20.9075 C137.208997,21.8131712 136.328672,22.266 135.176,22.266 C134.871998,22.266 134.612334,22.2406669 134.397,22.19 C134.181666,22.1393331 133.979001,22.0570006 133.789,21.943 L133.789,25.8 L131.528,25.8 L131.528,12.5 Z M133.789,19.872 C133.915667,19.9986673 134.058166,20.0936663 134.2165,20.157 C134.374834,20.2203337 134.580665,20.252 134.834,20.252 C135.340669,20.252 135.726999,20.0018358 135.993,19.5015 C136.259001,19.0011642 136.392,18.1493393 136.392,16.946 C136.392,16.0466622 136.290668,15.3785022 136.088,14.9415 C135.885332,14.5044978 135.549669,14.286 135.081,14.286 C134.447664,14.286 134.017001,14.6596629 133.789,15.407 L133.789,19.872 Z M145.74,14.571 L143.65,14.571 L143.65,22 L141.389,22 L141.389,14.571 L139.223,14.571 L139.223,12.5 L145.74,12.5 L145.74,14.571 Z M146.595,13.07 C146.975002,12.8419989 147.449997,12.658334 148.02,12.519 C148.590003,12.379666 149.235996,12.31 149.958,12.31 C151.034672,12.31 151.785165,12.5886639 152.2095,13.146 C152.633835,13.7033361 152.846,14.4949949 152.846,15.521 C152.846,16.1163363 152.830167,16.7021638 152.7985,17.2785 C152.766833,17.8548362 152.744667,18.4184972 152.732,18.9695 C152.719333,19.5205028 152.728833,20.0524974 152.7605,20.5655 C152.792167,21.0785026 152.877666,21.5629977 153.017,22.019 L151.174,22.019 L150.813,20.86 L150.737,20.86 C150.534332,21.2273352 150.249335,21.5313321 149.882,21.772 C149.514665,22.0126679 149.052336,22.133 148.495,22.133 C147.747663,22.133 147.158669,21.8828358 146.728,21.3825 C146.297331,20.8821642 146.082,20.2140042 146.082,19.378 C146.082,18.2379943 146.487329,17.4273357 147.298,16.946 C148.108671,16.4646643 149.204326,16.2619996 150.585,16.338 C150.648334,15.6033297 150.600834,15.071335 150.4425,14.742 C150.284166,14.412665 149.945336,14.248 149.426,14.248 C149.045998,14.248 148.653335,14.2923329 148.248,14.381 C147.842665,14.4696671 147.481668,14.5963325 147.165,14.761 L146.595,13.07 Z M149.312,20.195 C149.654002,20.195 149.932666,20.1095009 150.148,19.9385 C150.363334,19.7674991 150.521666,19.5806677 150.623,19.378 L150.623,17.801 C150.331665,17.7629998 150.053001,17.7566665 149.787,17.782 C149.520999,17.8073335 149.286668,17.8643329 149.084,17.953 C148.881332,18.0416671 148.719834,18.1714991 148.5995,18.3425 C148.479166,18.5135009 148.419,18.7319987 148.419,18.998 C148.419,19.3906686 148.498166,19.6883323 148.6565,19.891 C148.814834,20.0936677 149.033332,20.195 149.312,20.195 Z M158.755,14.571 L157.387,14.571 C157.336333,15.6730055 157.266667,16.6863287 157.178,17.611 C157.089333,18.5356713 156.950001,19.3304967 156.76,19.9955 C156.569999,20.6605033 156.313502,21.1798315 155.9905,21.5535 C155.667498,21.9271685 155.246336,22.114 154.727,22.114 C154.410332,22.114 154.138001,22.0918336 153.91,22.0475 C153.681999,22.0031664 153.485667,21.9303338 153.321,21.829 L153.587,19.853 C153.891002,19.9543338 154.147499,19.9480006 154.3565,19.834 C154.565501,19.7199994 154.739666,19.4065026 154.879,18.8935 C155.018334,18.3804974 155.129166,17.6173384 155.2115,16.604 C155.293834,15.5906616 155.354,14.2226753 155.392,12.5 L161.016,12.5 L161.016,22 L158.755,22 L158.755,14.571 Z" id="Торговый-портал" fill="#2B2B2B"></path>
                    </g>
                </g>
            </g>
        </g>
    </g>
</svg>