<svg viewBox="0 0 155 32" xmlns="http://www.w3.org/2000/svg">
  <path d="M10.6722 10.6891H21.2998V21.3555H10.6722V10.6891Z" fill="#1400DC"/>
  <path fill-rule="evenodd" clip-rule="evenodd" d="M0 0H31.9494V32H0V0ZM7.10012 10.6891H7.12212V21.3555H7.10012V24.9112L7.12212 24.9113L24.8498 24.9112V7.13343H7.10012V10.6891Z" fill="#1400DC"/>
  <path fill-rule="evenodd" clip-rule="evenodd" d="M150.976 1.70143V4.25529H151.508V3.29293H152.198L152.541 4.25529H153.076L152.694 3.17857C152.937 3.04985 153.073 2.8135 153.073 2.49526C153.073 1.99452 152.744 1.70143 152.176 1.70143H150.976ZM151.508 2.1697H152.048C152.402 2.1697 152.53 2.26272 152.53 2.50226C152.53 2.7173 152.416 2.83901 152.101 2.83901H151.508V2.1697Z" fill="black"/>
  <path fill-rule="evenodd" clip-rule="evenodd" d="M154.129 0.872531C153.591 0.333528 152.847 0 152.026 0C151.205 0 150.462 0.333528 149.924 0.872531C149.386 1.41118 149.053 2.15566 149.053 2.97818C149.053 3.80071 149.386 4.54515 149.924 5.08384C150.462 5.62253 151.205 5.95637 152.026 5.95637C152.847 5.95637 153.591 5.62253 154.129 5.08384C154.667 4.54515 155 3.80071 155 2.97818C155 2.15566 154.667 1.41118 154.129 0.872531ZM152.026 0.514777C152.706 0.514777 153.321 0.790636 153.766 1.23631C154.211 1.68199 154.486 2.29806 154.486 2.9785C154.486 3.65862 154.211 4.275 153.766 4.72068C153.321 5.16667 152.706 5.44253 152.026 5.44253C151.347 5.44253 150.732 5.16636 150.287 4.72068C149.842 4.27469 149.566 3.65862 149.566 2.9785C149.566 2.29806 149.842 1.68199 150.287 1.23631C150.732 0.790325 151.347 0.514777 152.026 0.514777Z" fill="black"/>
  <path d="M112.921 6.51874C112.497 3.74693 110.131 2.58454 107.631 2.58454C105.042 2.58454 102.721 4.01517 102.721 6.16107C102.721 8.35169 104.217 9.29056 106.471 9.75992L108.256 10.1399C109.305 10.3858 110.22 10.7211 110.22 11.6153C110.22 12.487 109.395 12.9788 108.055 12.9788C106.449 12.9788 105.645 12.107 105.467 10.9446H102.498C102.788 13.6941 105.02 15.2141 107.966 15.2141C110.689 15.2141 113.166 13.7388 113.166 11.3247C113.166 8.84344 111.135 8.23993 108.747 7.70345L107.14 7.34578C106.002 7.09994 105.533 6.6081 105.533 5.95987C105.533 5.22224 106.337 4.79752 107.475 4.79752C108.903 4.79752 109.796 5.51283 110.042 6.51874H112.921Z" fill="black"/>
  <path fill-rule="evenodd" clip-rule="evenodd" d="M44.7889 18.8354V13.4036C45.57 14.7448 46.976 15.2141 48.2258 15.2141C51.0825 15.2141 53.4705 12.7552 53.4705 8.91048C53.4705 5.1328 51.1495 2.62926 48.2481 2.62926C46.7305 2.62926 45.4361 3.29985 44.7889 4.43984V2.8975H41.709V18.8354H44.7889ZM47.4893 12.8447C45.7932 12.8447 44.6773 11.3917 44.6773 8.91048C44.6773 6.49635 45.7932 4.99868 47.4893 4.99868C49.0962 4.99868 50.2344 6.58578 50.2344 8.93288C50.2344 11.28 49.0962 12.8447 47.4893 12.8447Z" fill="black"/>
  <path d="M62.3354 2.96454C62.1346 2.94218 61.8668 2.91986 61.6659 2.91986C60.2599 2.91986 59.1886 3.50101 58.4968 4.99868V2.8975H55.4615V14.9235H58.5414V8.61993C58.5414 6.36226 59.5457 5.80339 61.0633 5.80339C61.5097 5.80339 61.8891 5.80339 62.3354 5.87047V2.96454Z" fill="black"/>
  <path fill-rule="evenodd" clip-rule="evenodd" d="M75.1661 8.93288C75.1661 13.1352 72.1755 15.2141 69.1403 15.2141C66.1051 15.2141 63.1145 13.1352 63.1145 8.93288C63.1145 4.70812 66.1051 2.62926 69.1403 2.62926C72.1755 2.62926 75.1661 4.70812 75.1661 8.93288ZM72.0416 8.93288C72.0416 6.40698 70.8365 5.0434 69.1403 5.0434C67.4441 5.0434 66.239 6.40698 66.239 8.93288C66.239 11.4588 67.4441 12.8 69.1403 12.8C70.8365 12.8 72.0416 11.4588 72.0416 8.93288Z" fill="black"/>
  <path d="M82.5447 2.62926C78.9515 2.62926 76.5188 5.26692 76.5188 8.93288C76.5188 12.5765 78.8176 15.2141 82.4107 15.2141C84.9103 15.2141 87.3877 14.1188 88.1018 10.8329H85.1558C84.7318 12.2635 83.6382 12.8224 82.567 12.8224C80.8708 12.8224 79.6656 11.4141 79.6656 8.88816C79.6656 6.38459 80.9378 5.02104 82.5447 5.02104C83.7275 5.02104 84.7988 5.84811 85.0443 7.0105H87.9902C87.5662 4.03749 85.0666 2.62926 82.5447 2.62926Z" fill="black"/>
  <path fill-rule="evenodd" clip-rule="evenodd" d="M95.2946 2.62926C98.9994 2.62926 101.298 5.51283 101.187 9.75992H92.3264C92.5049 11.8165 93.8886 12.8224 95.3616 12.8224C96.3212 12.8224 97.2586 12.487 97.8835 11.4365H101.053C100.405 13.2247 98.6646 15.2141 95.3839 15.2141C91.5229 15.2141 89.2688 12.3305 89.2688 8.86584C89.2688 5.28928 91.7461 2.62926 95.2946 2.62926ZM98.0621 7.63641C97.9951 5.60223 96.5668 4.88692 95.2723 4.88692C94.1118 4.88692 92.6165 5.60223 92.371 7.63641H98.0621Z" fill="black"/>
  <path d="M119.444 2.58454C121.944 2.58454 124.309 3.74693 124.734 6.51874H121.854C121.609 5.51283 120.716 4.79752 119.288 4.79752C118.15 4.79752 117.346 5.22224 117.346 5.95987C117.346 6.6081 117.815 7.09994 118.953 7.34578L120.56 7.70345C122.948 8.23993 124.979 8.84344 124.979 11.3247C124.979 13.7388 122.502 15.2141 119.779 15.2141C116.833 15.2141 114.601 13.6941 114.311 10.9446H117.279C117.458 12.107 118.261 12.9788 119.868 12.9788C121.207 12.9788 122.033 12.487 122.033 11.6153C122.033 10.7211 121.118 10.3858 120.069 10.1399L118.284 9.75992C116.03 9.29056 114.534 8.35169 114.534 6.16107C114.534 4.01517 116.855 2.58454 119.444 2.58454Z" fill="black"/>
  <path fill-rule="evenodd" clip-rule="evenodd" d="M132.236 15.2141C135.272 15.2141 138.262 13.1352 138.262 8.93288C138.262 4.70812 135.272 2.62926 132.236 2.62926C129.201 2.62926 126.21 4.70812 126.21 8.93288C126.21 13.1352 129.201 15.2141 132.236 15.2141ZM132.236 5.0434C133.933 5.0434 135.138 6.40698 135.138 8.93288C135.138 11.4588 133.933 12.8 132.236 12.8C130.54 12.8 129.335 11.4588 129.335 8.93288C129.335 6.40698 130.54 5.0434 132.236 5.0434Z" fill="black"/>
  <path d="M146.426 2.91986C146.627 2.91986 146.895 2.94218 147.096 2.96454V5.87047C146.649 5.80339 146.27 5.80339 145.823 5.80339C144.306 5.80339 143.301 6.36226 143.301 8.61993V14.9235H140.222V2.8975H143.257V4.99868C143.949 3.50101 145.02 2.91986 146.426 2.91986Z" fill="black"/>
  <path d="M41.7532 24.7773V31.4271H43.4562V24.7773H41.7532Z" fill="black"/>
  <path d="M41.7532 22.466V24.0481H43.4562V22.466H41.7532Z" fill="black"/>
  <path d="M50.3141 26.7797C50.0796 25.2471 48.7715 24.6043 47.3894 24.6043C45.9579 24.6043 44.6745 25.3954 44.6745 26.582C44.6745 27.7932 45.5013 28.3123 46.7477 28.5719L47.7349 28.7821C48.3149 28.918 48.8209 29.1034 48.8209 29.5978C48.8209 30.0799 48.3643 30.3518 47.6239 30.3518C46.7353 30.3518 46.2911 29.8697 46.1924 29.227H44.5511C44.7115 30.7473 45.9455 31.5878 47.5745 31.5878C49.08 31.5878 50.4499 30.772 50.4499 29.4372C50.4499 28.0652 49.3269 27.7315 48.0064 27.4348L47.1179 27.2371C46.4885 27.1011 46.2294 26.8291 46.2294 26.4707C46.2294 26.0628 46.6736 25.828 47.303 25.828C48.0928 25.828 48.5864 26.2235 48.7222 26.7797H50.3141Z" fill="black"/>
  <path fill-rule="evenodd" clip-rule="evenodd" d="M57.7947 28.1146C57.7947 30.4383 56.1411 31.5878 54.4628 31.5878C52.7845 31.5878 51.1308 30.4383 51.1308 28.1146C51.1308 25.7785 52.7845 24.629 54.4628 24.629C56.1411 24.629 57.7947 25.7785 57.7947 28.1146ZM56.067 28.1146C56.067 26.7179 55.4007 25.9639 54.4628 25.9639C53.5249 25.9639 52.8585 26.7179 52.8585 28.1146C52.8585 29.5113 53.5249 30.2529 54.4628 30.2529C55.4007 30.2529 56.067 29.5113 56.067 28.1146Z" fill="black"/>
  <path d="M62.9629 31.4271H64.6659V24.7773H62.9629V28.2382C62.9629 29.2888 62.7161 30.2158 61.5808 30.2158C60.6306 30.2158 60.4948 29.4989 60.4948 28.609V24.7773H58.7918V28.9798C58.7918 30.6114 59.4335 31.5878 61.0255 31.5878C61.8523 31.5878 62.5804 31.2294 62.9629 30.5495V31.4271Z" fill="black"/>
  <path d="M69.8152 24.7979C69.878 24.8025 69.9405 24.8084 69.9943 24.8144V26.4213C69.7475 26.3842 69.5377 26.3842 69.2909 26.3842C68.4517 26.3842 67.8964 26.6932 67.8964 27.9416V31.4271H66.1934V24.7773H67.8717V25.9392C68.2543 25.1111 68.8466 24.7897 69.6241 24.7897C69.6813 24.7897 69.7484 24.793 69.8152 24.7979Z" fill="black"/>
  <path d="M73.7693 24.629C71.7825 24.629 70.4374 26.0876 70.4374 28.1146C70.4374 30.1293 71.7085 31.5878 73.6953 31.5878C75.0774 31.5878 76.4473 30.9822 76.8421 29.1652H75.2132C74.9787 29.9563 74.374 30.2653 73.7817 30.2653C72.8438 30.2653 72.1774 29.4865 72.1774 28.0899C72.1774 26.7056 72.8808 25.9515 73.7693 25.9515C74.4234 25.9515 75.0158 26.4089 75.1515 27.0516H76.7805C76.546 25.4078 75.1638 24.629 73.7693 24.629Z" fill="black"/>
  <path fill-rule="evenodd" clip-rule="evenodd" d="M80.8194 24.629C82.8679 24.629 84.139 26.2235 84.0773 28.5719H79.1781C79.2768 29.7091 80.0419 30.2653 80.8564 30.2653C81.3871 30.2653 81.9054 30.0799 82.2509 29.4989H84.0033C83.6454 30.4878 82.6828 31.5878 80.8688 31.5878C78.7338 31.5878 77.4874 29.9933 77.4874 28.0775C77.4874 26.0999 78.8572 24.629 80.8194 24.629ZM82.3496 27.3977C82.3126 26.2729 81.5228 25.8774 80.807 25.8774C80.1653 25.8774 79.3385 26.2729 79.2028 27.3977H82.3496Z" fill="black"/>
</svg>
