<svg width="148" height="32" viewBox="0 0 148 32" fill="none" xmlns="http://www.w3.org/2000/svg">
<path d="M10.6722 10.6891H21.2998V21.3555H10.6722V10.6891Z" fill="#1400DC"/>
<path fill-rule="evenodd" clip-rule="evenodd" d="M0 0H31.9494V32H0V0ZM7.10012 10.6891H7.12212V21.3555H7.10012V24.9112L7.12212 24.9113L24.8498 24.9112V7.13343H7.10012V10.6891Z" fill="#1400DC"/>
<path d="M112.923 6.51868C112.499 3.74686 110.133 2.58447 107.633 2.58447C105.044 2.58447 102.723 4.0151 102.723 6.161C102.723 8.35162 104.219 9.29049 106.473 9.75985L108.258 10.1398C109.307 10.3858 110.222 10.721 110.222 11.6152C110.222 12.4869 109.396 12.9788 108.057 12.9788C106.45 12.9788 105.647 12.1069 105.468 10.9446H102.5C102.79 13.6941 105.022 15.214 107.968 15.214C110.691 15.214 113.168 13.7388 113.168 11.3246C113.168 8.84338 111.137 8.23986 108.749 7.70339L107.142 7.34571C106.004 7.09987 105.535 6.60804 105.535 5.9598C105.535 5.22217 106.339 4.79745 107.477 4.79745C108.905 4.79745 109.798 5.51277 110.044 6.51868H112.923Z" fill="black"/>
<path fill-rule="evenodd" clip-rule="evenodd" d="M44.7908 18.8353V13.4035C45.5719 14.7447 46.978 15.214 48.2278 15.214C51.0845 15.214 53.4725 12.7552 53.4725 8.91042C53.4725 5.13273 51.1514 2.62919 48.2501 2.62919C46.7325 2.62919 45.438 3.29979 44.7908 4.43978V2.89743H41.7109V18.8353H44.7908ZM47.4913 12.8446C45.7951 12.8446 44.6792 11.3917 44.6792 8.91042C44.6792 6.49628 45.7951 4.99861 47.4913 4.99861C49.0982 4.99861 50.2364 6.58572 50.2364 8.93282C50.2364 11.2799 49.0982 12.8446 47.4913 12.8446Z" fill="black"/>
<path d="M62.3374 2.96447C62.1365 2.94211 61.8687 2.91979 61.6679 2.91979C60.2618 2.91979 59.1906 3.50094 58.4987 4.99861V2.89743H55.4635V14.9235H58.5433V8.61986C58.5433 6.3622 59.5477 5.80332 61.0653 5.80332C61.5116 5.80332 61.891 5.80332 62.3374 5.8704V2.96447Z" fill="black"/>
<path fill-rule="evenodd" clip-rule="evenodd" d="M75.1681 8.93282C75.1681 13.1352 72.1775 15.214 69.1423 15.214C66.107 15.214 63.1164 13.1352 63.1164 8.93282C63.1164 4.70805 66.107 2.62919 69.1423 2.62919C72.1775 2.62919 75.1681 4.70805 75.1681 8.93282ZM72.0436 8.93282C72.0436 6.40692 70.8384 5.04333 69.1423 5.04333C67.4461 5.04333 66.2409 6.40692 66.2409 8.93282C66.2409 11.4587 67.4461 12.7999 69.1423 12.7999C70.8384 12.7999 72.0436 11.4587 72.0436 8.93282Z" fill="black"/>
<path d="M82.5466 2.62919C78.9534 2.62919 76.5208 5.26685 76.5208 8.93282C76.5208 12.5764 78.8195 15.214 82.4127 15.214C84.9123 15.214 87.3896 14.1188 88.1037 10.8328H85.1578C84.7338 12.2634 83.6402 12.8223 82.5689 12.8223C80.8728 12.8223 79.6676 11.414 79.6676 8.8881C79.6676 6.38452 80.9397 5.02097 82.5466 5.02097C83.7295 5.02097 84.8007 5.84804 85.0462 7.01043H87.9922C87.5681 4.03742 85.0685 2.62919 82.5466 2.62919Z" fill="black"/>
<path fill-rule="evenodd" clip-rule="evenodd" d="M95.2966 2.62919C99.0014 2.62919 101.3 5.51277 101.189 9.75985H92.3283C92.5068 11.8164 93.8905 12.8223 95.3635 12.8223C96.3232 12.8223 97.2606 12.4869 97.8855 11.4364H101.055C100.407 13.2246 98.6666 15.214 95.3858 15.214C91.5249 15.214 89.2707 12.3305 89.2707 8.86578C89.2707 5.28921 91.748 2.62919 95.2966 2.62919ZM98.064 7.63635C97.997 5.60217 96.5687 4.88685 95.2743 4.88685C94.1137 4.88685 92.6184 5.60217 92.3729 7.63635H98.064Z" fill="black"/>
<path d="M119.446 2.58447C121.946 2.58447 124.311 3.74686 124.735 6.51868H121.856C121.611 5.51277 120.718 4.79745 119.29 4.79745C118.152 4.79745 117.348 5.22217 117.348 5.9598C117.348 6.60804 117.817 7.09987 118.955 7.34571L120.562 7.70339C122.95 8.23986 124.981 8.84338 124.981 11.3246C124.981 13.7388 122.504 15.214 119.781 15.214C116.835 15.214 114.603 13.6941 114.313 10.9446H117.281C117.46 12.1069 118.263 12.9788 119.87 12.9788C121.209 12.9788 122.035 12.4869 122.035 11.6152C122.035 10.721 121.12 10.3858 120.071 10.1398L118.286 9.75985C116.031 9.29049 114.536 8.35162 114.536 6.161C114.536 4.0151 116.857 2.58447 119.446 2.58447Z" fill="black"/>
<path fill-rule="evenodd" clip-rule="evenodd" d="M132.238 15.214C135.274 15.214 138.264 13.1352 138.264 8.93282C138.264 4.70805 135.274 2.62919 132.238 2.62919C129.203 2.62919 126.212 4.70805 126.212 8.93282C126.212 13.1352 129.203 15.214 132.238 15.214ZM132.238 5.04333C133.934 5.04333 135.14 6.40692 135.14 8.93282C135.14 11.4587 133.934 12.7999 132.238 12.7999C130.542 12.7999 129.337 11.4587 129.337 8.93282C129.337 6.40692 130.542 5.04333 132.238 5.04333Z" fill="black"/>
<path d="M146.428 2.91979C146.629 2.91979 146.897 2.94211 147.097 2.96447V5.8704C146.651 5.80332 146.272 5.80332 145.825 5.80332C144.308 5.80332 143.303 6.3622 143.303 8.61986V14.9235H140.224V2.89743H143.259V4.99861C143.951 3.50094 145.022 2.91979 146.428 2.91979Z" fill="black"/>
<path d="M41.7552 24.7773V31.4271H43.4582V24.7773H41.7552Z" fill="black"/>
<path d="M41.7552 22.4659V24.0481H43.4582V22.4659H41.7552Z" fill="black"/>
<path d="M50.3161 26.7796C50.0816 25.247 48.7735 24.6042 47.3914 24.6042C45.9598 24.6042 44.6764 25.3953 44.6764 26.5819C44.6764 27.7931 45.5032 28.3123 46.7496 28.5719L47.7369 28.782C48.3169 28.918 48.8229 29.1034 48.8229 29.5978C48.8229 30.0798 48.3662 30.3517 47.6258 30.3517C46.7373 30.3517 46.293 29.8697 46.1943 29.227H44.553C44.7134 30.7473 45.9475 31.5877 47.5764 31.5877C49.082 31.5877 50.4518 30.772 50.4518 29.4371C50.4518 28.0651 49.3288 27.7314 48.0084 27.4348L47.1198 27.237C46.4905 27.101 46.2313 26.8291 46.2313 26.4706C46.2313 26.0628 46.6756 25.8279 47.305 25.8279C48.0948 25.8279 48.5884 26.2235 48.7241 26.7796H50.3161Z" fill="black"/>
<path fill-rule="evenodd" clip-rule="evenodd" d="M57.7967 28.1146C57.7967 30.4383 56.143 31.5877 54.4647 31.5877C52.7864 31.5877 51.1328 30.4383 51.1328 28.1146C51.1328 25.7784 52.7864 24.629 54.4647 24.629C56.143 24.629 57.7967 25.7784 57.7967 28.1146ZM56.069 28.1146C56.069 26.7179 55.4026 25.9638 54.4647 25.9638C53.5268 25.9638 52.8604 26.7179 52.8604 28.1146C52.8604 29.5112 53.5268 30.2528 54.4647 30.2528C55.4026 30.2528 56.069 29.5112 56.069 28.1146Z" fill="black"/>
<path d="M62.9649 31.4271H64.6679V24.7773H62.9649V28.2382C62.9649 29.2888 62.7181 30.2158 61.5827 30.2158C60.6325 30.2158 60.4968 29.4988 60.4968 28.609V24.7773H58.7938V28.9797C58.7938 30.6113 59.4355 31.5877 61.0274 31.5877C61.8542 31.5877 62.5823 31.2293 62.9649 30.5495V31.4271Z" fill="black"/>
<path d="M69.8171 24.7978C69.8799 24.8024 69.9424 24.8084 69.9962 24.8144V26.4212C69.7494 26.3841 69.5396 26.3841 69.2928 26.3841C68.4537 26.3841 67.8983 26.6931 67.8983 27.9415V31.4271H66.1953V24.7773H67.8737V25.9391C68.2562 25.111 68.8486 24.7896 69.626 24.7896C69.6833 24.7896 69.7504 24.7929 69.8171 24.7978Z" fill="black"/>
<path d="M73.7713 24.629C71.7845 24.629 70.4393 26.0875 70.4393 28.1146C70.4393 30.1293 71.7104 31.5877 73.6973 31.5877C75.0794 31.5877 76.4492 30.9821 76.8441 29.1651H75.2151C74.9807 29.9562 74.376 30.2652 73.7836 30.2652C72.8457 30.2652 72.1794 29.4865 72.1794 28.0898C72.1794 26.7055 72.8828 25.9515 73.7713 25.9515C74.4254 25.9515 75.0177 26.4089 75.1535 27.0516H76.7824C76.5479 25.4077 75.1658 24.629 73.7713 24.629Z" fill="black"/>
<path fill-rule="evenodd" clip-rule="evenodd" d="M80.8213 24.629C82.8699 24.629 84.141 26.2235 84.0793 28.5719H79.18C79.2788 29.709 80.0439 30.2652 80.8584 30.2652C81.389 30.2652 81.9073 30.0798 82.2529 29.4988H84.0052C83.6473 30.4877 82.6848 31.5877 80.8707 31.5877C78.7358 31.5877 77.4894 29.9932 77.4894 28.0775C77.4894 26.0998 78.8592 24.629 80.8213 24.629ZM82.3516 27.3977C82.3145 26.2728 81.5248 25.8774 80.809 25.8774C80.1673 25.8774 79.3405 26.2728 79.2047 27.3977H82.3516Z" fill="black"/>
</svg>
