<svg width="240" height="240" viewBox="0 0 240 240" fill="none" xmlns="http://www.w3.org/2000/svg">
<rect width="240" height="240" fill="white"/>
<path d="M60.1611 87.5959C59.7615 84.3411 62.076 81.3787 65.3307 80.979L147.836 70.8486C151.091 70.449 154.053 72.7635 154.453 76.0183L161.689 134.951C162.089 138.205 159.774 141.168 156.519 141.568L74.0139 151.698C70.7592 152.098 67.7967 149.783 67.3971 146.528L60.1611 87.5959Z" fill="white"/>
<path fill-rule="evenodd" clip-rule="evenodd" d="M148.415 75.5632L65.9096 85.6936C65.2587 85.7736 64.7958 86.3661 64.8757 87.017L72.1117 145.949C72.1916 146.6 72.7841 147.063 73.4351 146.983L155.94 136.853C156.591 136.773 157.054 136.181 156.974 135.53L149.738 76.5972C149.658 75.9462 149.066 75.4833 148.415 75.5632ZM65.3307 80.979C62.076 81.3787 59.7615 84.3411 60.1611 87.5959L67.3971 146.528C67.7967 149.783 70.7592 152.098 74.0139 151.698L156.519 141.568C159.774 141.168 162.089 138.205 161.689 134.951L154.453 76.0183C154.053 72.7635 151.091 70.449 147.836 70.8486L65.3307 80.979Z" fill="#E0E0E0"/>
<path d="M80.0518 96.4294C80.0518 93.1503 82.7101 90.4919 85.9893 90.4919H169.114C172.393 90.4919 175.052 93.1503 175.052 96.4294V155.804C175.052 159.084 172.393 161.742 169.114 161.742H85.9893C82.7101 161.742 80.0518 159.084 80.0518 155.804V96.4294Z" fill="white"/>
<path fill-rule="evenodd" clip-rule="evenodd" d="M169.114 95.2419H85.9893C85.3334 95.2419 84.8018 95.7736 84.8018 96.4294V155.804C84.8018 156.46 85.3334 156.992 85.9893 156.992H169.114C169.77 156.992 170.302 156.46 170.302 155.804V96.4294C170.302 95.7736 169.77 95.2419 169.114 95.2419ZM85.9893 90.4919C82.7101 90.4919 80.0518 93.1503 80.0518 96.4294V155.804C80.0518 159.084 82.7101 161.742 85.9893 161.742H169.114C172.393 161.742 175.052 159.084 175.052 155.804V96.4294C175.052 93.1503 172.393 90.4919 169.114 90.4919H85.9893Z" fill="#E0E0E0"/>
<path fill-rule="evenodd" clip-rule="evenodd" d="M135.396 144.305L115.194 114.836L89.5518 152.242L129.514 152.242H166.146L147.83 127.527L135.396 144.305Z" fill="#E0E0E0"/>
<ellipse cx="140.317" cy="117.508" rx="5.04688" ry="5.04687" fill="#E0E0E0"/>
</svg>
