<svg width="101" height="25" viewBox="0 0 101 25" fill="none" xmlns="http://www.w3.org/2000/svg">
<path d="M0 0H101V25H0L7 12.5L0 0Z" fill="#0EA04B"/>
<path d="M22.56 8.096H17.24V17H16.26V7.2H23.54V17H22.56V8.096ZM28.6527 17.098C28.1861 17.098 27.7614 17.0233 27.3787 16.874C27.0054 16.7247 26.6834 16.51 26.4127 16.23C26.1421 15.95 25.9321 15.6093 25.7827 15.208C25.6427 14.7973 25.5727 14.3307 25.5727 13.808V13.192C25.5727 12.6787 25.6474 12.2213 25.7967 11.82C25.9461 11.4093 26.1514 11.064 26.4127 10.784C26.6834 10.4947 27.0054 10.2753 27.3787 10.126C27.7614 9.97667 28.1861 9.902 28.6527 9.902C29.1194 9.902 29.5394 9.97667 29.9127 10.126C30.2954 10.2753 30.6221 10.49 30.8927 10.77C31.1634 11.05 31.3687 11.3953 31.5087 11.806C31.6581 12.2167 31.7327 12.6787 31.7327 13.192V13.808C31.7327 14.3213 31.6581 14.7833 31.5087 15.194C31.3594 15.5953 31.1494 15.9407 30.8787 16.23C30.6174 16.51 30.2954 16.7247 29.9127 16.874C29.5301 17.0233 29.1101 17.098 28.6527 17.098ZM28.6527 16.23C29.2874 16.23 29.8007 16.0247 30.1927 15.614C30.5847 15.194 30.7807 14.592 30.7807 13.808V13.192C30.7807 12.4173 30.5801 11.82 30.1787 11.4C29.7867 10.98 29.2781 10.77 28.6527 10.77C28.0181 10.77 27.5047 10.98 27.1127 11.4C26.7207 11.8107 26.5247 12.408 26.5247 13.192V13.808C26.5247 14.5827 26.7207 15.18 27.1127 15.6C27.5141 16.02 28.0274 16.23 28.6527 16.23ZM36.364 17.098C35.888 17.098 35.4587 17.0233 35.076 16.874C34.6933 16.7247 34.3667 16.4913 34.096 16.174C33.8347 15.8567 33.6293 15.4553 33.48 14.97C33.34 14.4847 33.27 13.9107 33.27 13.248V12.352C33.27 11.876 33.2933 11.414 33.34 10.966C33.3867 10.518 33.466 10.1027 33.578 9.72C33.6993 9.33733 33.8627 8.99667 34.068 8.698C34.2733 8.39933 34.5393 8.152 34.866 7.956C35.1553 7.788 35.44 7.676 35.72 7.62C36.0093 7.55467 36.3127 7.508 36.63 7.48C36.9473 7.452 37.288 7.41933 37.652 7.382C38.016 7.33533 38.422 7.242 38.87 7.102V7.956C38.5153 8.08667 38.17 8.17067 37.834 8.208C37.5073 8.24533 37.19 8.278 36.882 8.306C36.5833 8.334 36.2987 8.37133 36.028 8.418C35.7573 8.46467 35.51 8.558 35.286 8.698C34.9313 8.93133 34.6653 9.25333 34.488 9.664C34.32 10.0653 34.208 10.602 34.152 11.274C34.3947 10.8633 34.7167 10.5553 35.118 10.35C35.5287 10.1447 36 10.042 36.532 10.042C36.952 10.042 37.3393 10.1167 37.694 10.266C38.0487 10.4153 38.352 10.63 38.604 10.91C38.8653 11.1807 39.066 11.5167 39.206 11.918C39.3553 12.31 39.43 12.758 39.43 13.262V13.878C39.43 14.3727 39.3553 14.8207 39.206 15.222C39.0567 15.614 38.8467 15.95 38.576 16.23C38.3053 16.51 37.9833 16.7247 37.61 16.874C37.2367 17.0233 36.8213 17.098 36.364 17.098ZM36.364 10.91C35.72 10.91 35.2067 11.1013 34.824 11.484C34.4413 11.8667 34.2407 12.422 34.222 13.15V13.878C34.222 14.6247 34.418 15.2033 34.81 15.614C35.202 16.0247 35.72 16.23 36.364 16.23C37.008 16.23 37.5213 16.0293 37.904 15.628C38.2867 15.2173 38.478 14.634 38.478 13.878V13.262C38.478 12.506 38.282 11.9273 37.89 11.526C37.5073 11.1153 36.9987 10.91 36.364 10.91ZM43.9773 17.098C43.0533 17.098 42.3206 16.818 41.7793 16.258C41.2379 15.6887 40.9673 14.872 40.9673 13.808V13.192C40.9673 12.1373 41.2379 11.3253 41.7793 10.756C42.3299 10.1867 43.0626 9.902 43.9773 9.902C44.8919 9.902 45.6199 10.1867 46.1613 10.756C46.7119 11.3253 46.9873 12.1373 46.9873 13.192V13.766H41.9193V13.808C41.9193 14.62 42.1059 15.2267 42.4793 15.628C42.8526 16.0293 43.3519 16.23 43.9773 16.23C44.5559 16.23 44.9946 16.1087 45.2933 15.866C45.6013 15.6233 45.8253 15.32 45.9653 14.956H46.9173C46.8426 15.2547 46.7306 15.5347 46.5813 15.796C46.4319 16.0573 46.2359 16.286 45.9933 16.482C45.7506 16.6687 45.4613 16.818 45.1253 16.93C44.7893 17.042 44.4066 17.098 43.9773 17.098ZM43.9773 10.77C43.3706 10.77 42.8853 10.9613 42.5213 11.344C42.1666 11.7173 41.9659 12.254 41.9193 12.954H46.0213C45.9839 12.226 45.7786 11.68 45.4053 11.316C45.0413 10.952 44.5653 10.77 43.9773 10.77ZM54.1171 17H48.7551V18.82H47.8311V16.16H48.5731C48.7411 15.908 48.8764 15.6653 48.9791 15.432C49.0818 15.1987 49.1611 14.9327 49.2171 14.634C49.2731 14.326 49.3104 13.9713 49.3291 13.57C49.3571 13.1687 49.3711 12.6787 49.3711 12.1V10H54.0611V16.16H55.0411V18.82H54.1171V17ZM50.2951 12.1C50.2951 12.6787 50.2811 13.178 50.2531 13.598C50.2344 14.0087 50.1971 14.368 50.1411 14.676C50.0944 14.984 50.0291 15.2547 49.9451 15.488C49.8611 15.712 49.7631 15.936 49.6511 16.16H53.1371V10.84H50.2951V12.1ZM61.3244 11.064L60.4564 12.52L57.6564 17H56.5084V10H57.4324V15.95L58.3004 14.48L61.1004 10H62.2484V17H61.3244V11.064ZM63.7895 10H69.3895V10.84H67.0515V17H66.1275V10.84H63.7895V10ZM73.2488 17.098C72.3248 17.098 71.5921 16.818 71.0508 16.258C70.5094 15.6887 70.2388 14.872 70.2388 13.808V13.192C70.2388 12.1373 70.5094 11.3253 71.0508 10.756C71.6014 10.1867 72.3341 9.902 73.2488 9.902C74.1634 9.902 74.8914 10.1867 75.4328 10.756C75.9834 11.3253 76.2588 12.1373 76.2588 13.192V13.766H71.1908V13.808C71.1908 14.62 71.3774 15.2267 71.7508 15.628C72.1241 16.0293 72.6234 16.23 73.2488 16.23C73.8274 16.23 74.2661 16.1087 74.5648 15.866C74.8728 15.6233 75.0968 15.32 75.2368 14.956H76.1888C76.1141 15.2547 76.0021 15.5347 75.8528 15.796C75.7034 16.0573 75.5074 16.286 75.2648 16.482C75.0221 16.6687 74.7328 16.818 74.3968 16.93C74.0608 17.042 73.6781 17.098 73.2488 17.098ZM73.2488 10.77C72.6421 10.77 72.1568 10.9613 71.7928 11.344C71.4381 11.7173 71.2374 12.254 71.1908 12.954H75.2928C75.2554 12.226 75.0501 11.68 74.6768 11.316C74.3128 10.952 73.8368 10.77 73.2488 10.77ZM77.1726 16.23H77.3826C77.5506 16.23 77.7046 16.1927 77.8446 16.118C77.9939 16.034 78.1199 15.8847 78.2226 15.67C78.3346 15.4553 78.4186 15.166 78.4746 14.802C78.5399 14.4287 78.5726 13.948 78.5726 13.36V10H83.3326V17H82.4086V10.84H79.4966V13.36C79.4966 14.088 79.4452 14.6947 79.3426 15.18C79.2492 15.656 79.1092 16.0387 78.9226 16.328C78.7359 16.608 78.5119 16.8087 78.2506 16.93C77.9892 17.042 77.6999 17.098 77.3826 17.098H77.1726V16.23ZM85.7115 10H86.6355V12.52H88.1895C89.1882 12.52 89.9115 12.7207 90.3595 13.122C90.8075 13.514 91.0315 14.06 91.0315 14.76C91.0315 15.4413 90.8028 15.9873 90.3455 16.398C89.8882 16.7993 89.1695 17 88.1895 17H85.7115V10ZM86.6355 13.36V16.16H88.1895C88.8802 16.16 89.3655 16.0387 89.6455 15.796C89.9348 15.544 90.0795 15.1987 90.0795 14.76C90.0795 14.312 89.9348 13.9667 89.6455 13.724C89.3655 13.4813 88.8802 13.36 88.1895 13.36H86.6355Z" fill="white"/>
</svg>
