<svg xmlns="http://www.w3.org/2000/svg" width="14" height="18" viewBox="0 0 14 18">
    <path fill="#FFF" fill-rule="evenodd" d="M3.5 7h7V4.75c0-.828-.342-1.535-1.025-2.121C8.79 2.043 7.966 1.75 7 1.75c-.966 0-1.791.293-2.475.879C3.842 3.215 3.5 3.922 3.5 4.75V7zM14 9.148v7.159c0 .331-.113.613-.34.845a1.113 1.113 0 0 1-.827.348H1.167c-.324 0-.6-.116-.827-.348a1.164 1.164 0 0 1-.34-.845v-7.16c0-.33.113-.612.34-.844.227-.232.503-.348.827-.348h.389V5.568c0-1.524.534-2.834 1.604-3.927C4.23.547 5.51 0 7 0c1.49 0 2.77.547 3.84 1.64 1.07 1.094 1.604 2.404 1.604 3.928v2.387h.39c.323 0 .599.116.826.348.227.232.34.513.34.845z"/>
</svg>
