<svg width="12" height="12" viewBox="0 0 12 12" fill="none" xmlns="http://www.w3.org/2000/svg">
    <path fill-rule="evenodd" clip-rule="evenodd" d="M12 11.1433C12 11.6122 11.5823 12 11.0774 12H0.922642C0.417693 12 0 11.6122 0 11.1433V2.57164C0 2.10278 0.417693 1.71418 0.922642 1.71418H1.84609V1.07127C1.84609 0.482371 2.36477 0 2.9998 0H3.46193C4.09614 0 4.61563 0.482371 4.61563 1.07127V1.71418H7.38437V1.07127C7.38437 0.482371 7.90386 0 8.53807 0H9.00101C9.63523 0 10.1539 0.482371 10.1539 1.07127V1.71418H11.0774C11.5823 1.71418 12 2.10278 12 2.57164V11.1433ZM0.922607 6.2146H2.99976V4.28662H0.922607V6.2146ZM0.922607 8.78534H2.99976V6.64355H0.922607V8.78534ZM0.922607 11.1433H2.99976V9.21533H0.922607V11.1433ZM3.69213 1.07123C3.69213 0.957947 3.58387 0.857422 3.46187 0.857422H2.99974C2.87694 0.857422 2.76868 0.957947 2.76868 1.07123V2.99996C2.76868 3.11399 2.87694 3.21451 2.99974 3.21451H3.46187C3.58387 3.21451 3.69213 3.11399 3.69213 2.99996V1.07123ZM3.46191 6.2146H5.76933V4.28662H3.46191V6.2146ZM3.46191 8.78534H5.76933V6.64355H3.46191V8.78534ZM3.46191 11.1433H5.76933V9.21533H3.46191V11.1433ZM6.23145 6.2146H8.53805V4.28662H6.23145V6.2146ZM6.23145 8.78534H8.53805V6.64355H6.23145V8.78534ZM6.23145 11.1433H8.53805V9.21533H6.23145V11.1433ZM9.2305 1.07123C9.2305 0.957947 9.12305 0.857422 9.00105 0.857422H8.53812C8.41612 0.857422 8.30786 0.957947 8.30786 1.07123V2.99996C8.30786 3.11399 8.41612 3.21451 8.53812 3.21451H9.00105C9.12305 3.21451 9.2305 3.11399 9.2305 2.99996V1.07123ZM9.00098 6.2146H11.0773V4.28662H9.00098V6.2146ZM9.00098 8.78534H11.0773V6.64355H9.00098V8.78534ZM9.00098 11.1433H11.0773V9.21533H9.00098V11.1433Z" fill="#9CAEBB"/>
</svg>
