<svg width="14" height="14" viewBox="0 0 14 14" fill="none" xmlns="http://www.w3.org/2000/svg">
    <path fill-rule="evenodd" clip-rule="evenodd" d="M14 11.136C14 12.7176 12.7166 14 11.136 14H2.86397C1.28245 14 0 12.7176 0 11.136V2.86298C0 1.28245 1.28245 0 2.86397 0H11.136C12.7166 0 14 1.28245 14 2.86298V11.136V11.136ZM2.86401 1.27255C1.98858 1.27255 1.27258 1.98855 1.27258 2.86299V11.136C1.27258 12.0115 1.98858 12.7265 2.86401 12.7265H11.1361C12.0105 12.7265 12.7275 12.0115 12.7275 11.136V2.86299C12.7275 1.98855 12.0105 1.27255 11.1361 1.27255H2.86401V1.27255Z" fill="#D8DDE6"/>
</svg>