<svg width="17" height="14" viewBox="0 0 17 14" fill="none" xmlns="http://www.w3.org/2000/svg">
<path fill-rule="evenodd" clip-rule="evenodd" d="M14.3938 11.136C14.3938 12.7176 13.0742 14 11.4492 14H2.94453C1.31852 14 0 12.7176 0 11.136V2.86298C0 1.28245 1.31852 0 2.94453 0H11.4492C11.8585 0 12.2668 0.0792247 12.6456 0.248568C12.7372 0.28818 12.8095 0.378298 12.8299 0.477329C12.8502 0.587253 12.8187 0.685294 12.7372 0.765509L12.2363 1.25274L12.0011 1.35177L11.9094 1.33296C11.7557 1.29334 11.602 1.27255 11.4492 1.27255H2.94453C2.04447 1.27255 1.30834 1.98854 1.30834 2.86298V11.136C1.30834 12.0115 2.04447 12.7265 2.94453 12.7265H11.4492C12.3483 12.7265 13.0854 12.0115 13.0854 11.136V8.61074L13.1771 8.39188L13.8307 7.75511L14.0659 7.65608L14.1891 7.68579C14.3113 7.7353 14.3938 7.84523 14.3938 7.97496V11.136V11.136Z" fill="#D8DDE6"/>
<path fill-rule="evenodd" clip-rule="evenodd" d="M1.59143 0C0.715993 0 0 0.715994 0 1.59044V9.86348C0 10.7389 0.715993 11.4539 1.59143 11.4539H9.86348C10.7379 11.4539 11.4549 10.7389 11.4549 9.86348V1.59044C11.4549 0.715994 10.7379 0 9.86348 0H1.59143V0Z" transform="translate(1.27258 1.27255)" fill="white"/>
<path fill-rule="evenodd" clip-rule="evenodd" d="M5.80632 10.5594C5.47949 10.8783 4.96838 10.8783 4.64155 10.5594L0.245123 6.28425C-0.0817075 5.96636 -0.0817075 5.46923 0.245123 5.15035L1.37019 4.05705C1.69702 3.73916 2.20814 3.73916 2.53497 4.05705L5.22394 6.67246L11.8379 0.238417C12.1647 -0.0794723 12.6759 -0.0794723 13.0037 0.238417L14.1278 1.33271C14.4546 1.6506 14.4546 2.14773 14.1278 2.46562L5.80632 10.5594V10.5594Z" transform="translate(2.62708 0.645935)" fill="#0085FF"/>
</svg>
