<svg width="14" height="16" viewBox="0 0 14 16" fill="none" xmlns="http://www.w3.org/2000/svg">
    <path fill-rule="evenodd" clip-rule="evenodd" d="M13.3794 3.393C13.5488 3.56 13.6948 3.786 13.8163 4.072C13.9377 4.358 14 4.619 14 4.858V15.143C14 15.381 13.9143 15.584 13.7448 15.75C13.5733 15.917 13.3671 16 13.1242 16H0.874809C0.631863 16 0.424645 15.917 0.255195 15.75C0.0857455 15.584 0 15.381 0 15.143V0.858C0 0.619 0.0857455 0.417 0.255195 0.25C0.424645 0.084 0.631863 0 0.874809 0H9.04105C9.284 0 9.55144 0.06 9.84236 0.179C10.1333 0.298 10.365 0.441 10.5365 0.608L13.3794 3.393ZM12.8333 14.8581V5.71507H9.04109C8.79814 5.71507 8.59093 5.63107 8.42148 5.46507C8.25203 5.29807 8.16628 5.09507 8.16628 4.85807V1.14307H1.16577V14.8581H12.8333ZM9.33203 1.21509V4.57209H12.7598C12.6996 4.39909 12.6322 4.27709 12.5577 4.20609L9.70768 1.41109C9.63316 1.34009 9.50965 1.27409 9.33203 1.21509Z" fill="#9CAEBB"/>
</svg>