<svg width="15" height="13" viewBox="0 0 15 13" fill="none" xmlns="http://www.w3.org/2000/svg">
    <path fill-rule="evenodd" clip-rule="evenodd" d="M15 4.43226V10.9317C15 11.4984 14.8011 11.9845 14.4043 12.3909C14.0085 12.7973 13.533 13 12.9808 13H2.01925C1.46699 13 0.991452 12.7973 0.595679 12.3909C0.198896 11.9845 0 11.4984 0 10.9317V2.06825C0 1.50155 0.198896 1.01551 0.595679 0.6091C0.991452 0.202689 1.46699 0 2.01925 0H4.90375C5.45601 0 5.93155 0.202689 6.32732 0.6091C6.7241 1.01551 6.923 1.50155 6.923 2.06825V2.36298H12.9808C13.533 2.36298 14.0085 2.5667 14.4043 2.97311C14.8011 3.37849 15 3.86556 15 4.43226ZM13.847 10.9317V4.4322C13.847 4.18504 13.7622 3.97615 13.5946 3.80345C13.4249 3.63179 13.221 3.54492 12.9807 3.54492H6.63522C6.39493 3.54492 6.18997 3.45909 6.02238 3.28639C5.85276 3.11472 5.76997 2.9048 5.76997 2.65867V2.06819C5.76997 1.82207 5.68516 1.61214 5.51756 1.43944C5.34795 1.26777 5.144 1.18091 4.90371 1.18091H2.01921C1.77791 1.18091 1.57296 1.26777 1.40536 1.43944C1.23776 1.61214 1.15295 1.82207 1.15295 2.06819V10.9317C1.15295 11.1778 1.23776 11.3877 1.40536 11.5594C1.57296 11.7321 1.77791 11.8179 2.01921 11.8179H12.9807C13.221 11.8179 13.4249 11.7321 13.5946 11.5594C13.7622 11.3877 13.847 11.1778 13.847 10.9317Z" fill="#9CAEBB"/>
</svg>