<svg xmlns="http://www.w3.org/2000/svg" width="14" height="18" viewBox="0 0 14 18">
    <g fill="#FFF" fill-rule="evenodd" transform="translate(-6 -4)">
        <rect width="14" height="2" x="6" y="20" rx=".5"/>
        <path d="M13.022 17a.246.246 0 0 1-.18-.075l-2.664-2.89a.235.235 0 0 1-.045-.262c.045-.096.118-.143.218-.143h1.685V4.24c0-.07.023-.127.068-.172A.234.234 0 0 1 12.277 4h1.444c.07 0 .128.023.174.068a.234.234 0 0 1 .067.173v9.389h1.685c.106 0 .178.047.219.143a.242.242 0 0 1-.038.263l-2.633 2.889a.238.238 0 0 1-.173.075z"/>
    </g>
</svg>
