<svg width="32" height="32" viewBox="0 0 32 32" fill="none" xmlns="http://www.w3.org/2000/svg">
    <path fill-rule="evenodd" clip-rule="evenodd" d="M22.479 14.2199C22.6502 14.7371 23.0955 16.0482 21.3836 17.1871C21.6575 18.3599 20.2533 19.6019 18.9523 20.1885C18.9185 21.0509 16.3504 23.2929 11.9337 23.2929C7.5167 23.2929 5.01804 21.4646 5.01804 21.4646C5.80484 21.8096 8.81795 22.6723 11.5913 22.6723C15.8369 22.6036 17.3434 20.844 17.3434 20.844C17.3434 20.844 14.5012 21.7065 10.3589 21.4993C6.66106 21.3618 2.62143 19.2223 2.62143 19.2223C2.62143 19.2223 2.17552 18.8432 2.27877 18.5676C2.89498 18.8086 5.59953 20.1541 9.91359 20.7062C14.2274 21.2581 17.5146 19.8094 17.5146 19.8094C17.5146 19.8094 17.0696 19.1189 16.6587 18.9126C14.2959 19.4985 11.0437 19.5332 7.58523 19.0154C4.1271 18.4983 0.771916 15.9454 0.771916 15.9454C0.771916 15.9454 0.326892 15.4626 0.668967 15.2557C1.59373 15.8075 4.22975 17.6015 8.50969 18.2917C12.7893 18.9814 15.0836 18.4636 15.5968 18.1183C15.0836 17.8083 10.8719 17.2215 7.5164 16.4622C4.16092 15.7035 1.90139 14.4274 0.874272 13.4956C-0.152843 12.5647 -0.255199 11.0114 0.463366 9.94271C0.395129 9.59803 -0.290207 8.39033 1.52549 7.45914C1.49048 6.80328 0.600434 5.56149 3.40794 4.25036C3.64825 2.6636 6.35251 0.66252 10.6666 0.110683C15.015 -0.475233 17.2402 1.4559 17.2402 1.4559C17.2402 1.4559 14.7412 0.52471 11.1119 0.800628C7.75642 0.800628 4.94891 3.49106 4.94891 3.49106C4.94891 3.49106 6.66077 2.24957 11.8305 1.76619C17.0343 1.55993 19.7735 3.28479 19.7735 3.28479L19.9788 3.62947C18.9864 3.28479 15.631 2.52579 11.9672 2.56047C8.30439 2.59485 4.70889 4.76841 4.70889 4.76841L4.77713 5.21682C4.77713 5.21682 4.67507 5.52771 5.01744 5.42368C5.35981 5.32055 8.26968 3.56071 13.4741 3.66444C18.6779 3.76787 21.3486 5.45806 21.3486 5.45806C21.3486 5.45806 21.691 5.94144 21.5201 5.94144C19.3626 5.11339 16.1442 4.38876 12.9258 4.38876C9.7074 4.38876 6.11279 6.04487 6.11279 6.04487L7.48228 6.59671C7.48228 6.59671 9.84447 5.59647 14.7747 5.73458C19.705 5.87209 22.6843 8.32158 22.6843 8.32158C22.6843 8.32158 22.7866 8.39033 22.7525 8.59749C20.4583 7.45914 17.206 6.63109 14.7747 6.4583C12.344 6.28612 9.7074 7.07919 9.7074 7.07919C9.7074 7.07919 12.2411 7.42447 16.3501 8.2869C20.7321 8.94247 22.992 11.6679 22.992 11.6679C23.7458 12.8403 22.8902 13.5993 22.479 14.2199ZM21.383 15.1003C21.383 15.1003 20.3214 15.67 20.4585 15.67C20.5959 15.8422 20.9382 16.2219 20.9382 16.2219C21.7081 15.9803 21.383 15.1003 21.383 15.1003ZM18.8155 19.2232C19.5002 18.7748 19.7402 18.4301 19.8085 18.0505C19.5682 18.188 18.0619 18.4645 18.2672 18.4989C18.4731 18.5332 18.8155 19.2232 18.8155 19.2232ZM19.5347 17.0499C19.3983 16.5672 18.7129 16.2219 18.7129 16.2219C18.7129 16.2219 17.1381 16.8774 16.2134 16.9812C17.0014 17.3262 17.412 17.8092 17.412 17.8092C17.4117 17.8092 19.1924 17.2915 19.5347 17.0499ZM1.19472 11.2198C1.19472 11.2198 0.898035 11.7949 1.33178 12.2547C1.76494 12.7144 2.99766 13.9789 7.26632 14.9914C11.5347 16.0036 14.6617 16.4174 17.0129 15.7044C17.1954 15.5896 16.9216 15.543 16.9216 15.543C16.9216 15.543 11.0556 14.3251 9.22918 14.0029C7.4028 13.68 2.74666 12.6457 1.51395 11.174L1.19472 11.2198ZM1.59399 9.21868C1.88474 8.92572 2.43242 8.66684 2.43242 8.66684C2.43242 8.66684 2.24432 8.54607 2.09034 8.18376C1.69635 8.30483 1.59399 9.21868 1.59399 9.21868ZM15.4149 13.7263C16.7841 14.0253 19.2264 14.8994 19.2264 14.8994C19.2264 14.8994 20.6187 14.3242 20.5733 14.2321C20.5273 14.1395 19.3866 13.5422 17.7198 13.0134C16.0537 12.4849 8.74904 11.105 7.152 10.8057C5.55377 10.5068 3.49925 9.42584 3.49925 9.42584L2.51782 10.1612C3.08864 10.9429 5.75908 11.7486 5.75908 11.7486C7.56261 12.3459 13.9769 13.3814 15.4149 13.7263ZM2.74011 6.2347L2.7229 6.51062C2.77452 6.21766 3.68118 6.02754 3.68118 6.02754L3.33911 5.40665L2.74011 6.2347ZM3.32202 7.51057C3.52733 7.76945 3.80146 7.97691 3.80146 7.97691C4.43458 7.5285 4.99946 7.39039 5.51332 7.26962C5.22257 7.14855 4.469 6.73453 4.469 6.73453C4.469 6.73453 3.44188 7.18293 3.32202 7.51057ZM5.32471 8.66656C5.59855 8.75863 7.35639 9.42496 9.13708 9.74721C13.0399 10.3457 16.3109 10.9621 18.1295 11.5408C20.2983 12.2314 21.577 13.2896 21.577 13.2896C21.577 13.2896 21.5995 13.1512 21.6221 12.1396C19.6592 9.93165 12.1267 8.87342 10.6433 8.5972C9.15933 8.32158 7.03656 7.8385 7.03656 7.8385L5.32471 8.66656Z" transform="translate(4.11768 4.45293)" fill="#316DA4"/>
    <path fill-rule="evenodd" clip-rule="evenodd" d="M0 15.8804C0 7.11057 7.10959 0.00149646 15.8807 0C24.6519 0.00149646 31.7618 7.11057 31.7618 15.8804C31.7618 24.6502 24.6522 31.7593 15.881 31.7608C7.10989 31.7593 0 24.6502 0 15.8804ZM0.662109 15.8804C0.678872 24.2839 7.47657 31.082 15.8813 31.0964C24.2864 31.082 31.0847 24.2839 31.0997 15.8804C31.0847 7.4769 24.2861 0.679393 15.8813 0.664429C7.47597 0.679393 0.678273 7.4769 0.662109 15.8804Z" transform="translate(0.0175781 0.237396)" fill="#316DA4"/>
</svg>
