<svg xmlns="http://www.w3.org/2000/svg" width="14" height="18" viewBox="0 0 14 18">
    <g fill="#FFF" fill-rule="evenodd" transform="translate(-6 -4)">
        <rect width="14" height="2" x="6" y="20" rx=".5"/>
        <path d="M12.978 4c.07 0 .13.025.18.075l2.664 2.89c.07.08.085.167.045.262-.045.096-.118.143-.218.143h-1.686v9.39c0 .07-.022.127-.067.172a.234.234 0 0 1-.173.068h-1.445a.234.234 0 0 1-.173-.068.234.234 0 0 1-.067-.173V7.37h-1.686a.218.218 0 0 1-.218-.143.242.242 0 0 1 .038-.263l2.633-2.889A.238.238 0 0 1 12.978 4z"/>
    </g>
</svg>
