<svg width="12" height="12" viewBox="0 0 12 12" fill="none" xmlns="http://www.w3.org/2000/svg">
<path fill-rule="evenodd" clip-rule="evenodd" d="M7.09091 6.81818H11.5909C11.8091 6.81818 12 6.62727 12 6.40909V5.59091C12 5.37273 11.8091 5.18182 11.5909 5.18182H7.09091C6.92727 5.18182 6.81818 5.07273 6.81818 4.90909V0.409091C6.81818 0.190909 6.62727 0 6.40909 0H5.59091C5.37273 0 5.18182 0.190909 5.18182 0.409091V4.90909C5.18182 5.07273 5.07273 5.18182 4.90909 5.18182H0.409091C0.190909 5.18182 0 5.37273 0 5.59091V6.40909C0 6.62727 0.190909 6.81818 0.409091 6.81818H4.90909C5.07273 6.81818 5.18182 6.92727 5.18182 7.09091V11.5909C5.18182 11.8091 5.37273 12 5.59091 12H6.40909C6.62727 12 6.81818 11.8091 6.81818 11.5909V7.09091C6.81818 6.92727 6.92727 6.81818 7.09091 6.81818Z" fill="white"/>
</svg>