<svg width="15" height="15" viewBox="0 0 15 15" fill="none" xmlns="http://www.w3.org/2000/svg">
    <path fill-rule="evenodd" clip-rule="evenodd" d="M13.9938 3.73517C14.6646 4.88431 15 6.13941 15 7.49951C15 8.86059 14.6646 10.1157 13.9938 11.2639C13.323 12.414 12.414 13.3239 11.2648 13.9938C10.1147 14.6646 8.86156 15 7.49951 15C6.13941 15 4.88431 14.6646 3.73517 13.9938C2.58604 13.3239 1.67704 12.414 1.00525 11.2639C0.335407 10.1157 0 8.86059 0 7.49951C0 6.13941 0.335407 4.88431 1.00525 3.73517C1.67704 2.58701 2.58604 1.67606 3.73517 1.00622C4.88431 0.335407 6.13941 0 7.49951 0C8.86156 0 10.1147 0.335407 11.2648 1.00622C12.414 1.67606 13.323 2.58701 13.9938 3.73517V3.73517ZM10.1653 2.90103C9.35161 2.42563 8.46302 2.18744 7.49957 2.18744C6.5371 2.18744 5.64851 2.42563 4.83382 2.90103C4.02009 3.37546 3.37552 4.02003 2.90109 4.83375C2.42472 5.64748 2.1875 6.53607 2.1875 7.49951C2.1875 8.46393 2.42472 9.35252 2.90109 10.1662C3.37552 10.979 4.02009 11.6245 4.83382 12.0999C5.64851 12.5744 6.5371 12.8126 7.49957 12.8126C8.46302 12.8126 9.35161 12.5744 10.1653 12.0999C10.98 11.6245 11.6236 10.979 12.1 10.1662C12.5744 9.35252 12.8126 8.46393 12.8126 7.49951C12.8126 6.53607 12.5744 5.64748 12.1 4.83375C11.6236 4.02003 10.98 3.37546 10.1653 2.90103V2.90103Z" fill="#D8DDE6"/>
</svg>
