<svg xmlns="http://www.w3.org/2000/svg" width="14" height="18" viewBox="0 0 14 18">
    <path fill="#FFF" fill-rule="evenodd" d="M12.833 8.75c.324 0 .6.106.827.319.227.213.34.47.34.775v6.562c0 .304-.113.562-.34.775a1.164 1.164 0 0 1-.827.319H1.167c-.324 0-.6-.106-.827-.319a1.023 1.023 0 0 1-.34-.775V9.844c0-.304.113-.562.34-.775.227-.213.503-.319.827-.319h.389V5.104c0-1.405.532-2.607 1.598-3.606C4.219.5 5.5 0 7 0s2.781.5 3.846 1.498c1.066.999 1.598 2.201 1.598 3.606a.68.68 0 0 1-.23.513.773.773 0 0 1-.547.216h-.778a.773.773 0 0 1-.547-.216.68.68 0 0 1-.23-.513c0-.805-.305-1.492-.912-2.062-.608-.57-1.341-.854-2.2-.854-.859 0-1.592.284-2.2.854-.607.57-.911 1.257-.911 2.062V8.75h8.944z"/>
</svg>
