<svg width="32" height="32" viewBox="0 0 32 32" fill="none" xmlns="http://www.w3.org/2000/svg">
    <circle cx="16" cy="16" r="16" fill="#F0F3F5"/>
    <path d="M21.3917 12.4233C21.2846 11.3057 21.1141 10.4356 20.8443 10.0936C19.7319 8.68737 11.9394 8.58446 11.0547 10.0936C10.8383 10.4634 10.6865 11.3304 10.5846 12.4251C10.256 12.4664 10 12.7619 10 13.1236V14.4926C10 14.797 10.1806 15.0537 10.4328 15.1538C10.3731 17.31 10.4216 19.5596 10.511 20.6783C10.511 21.542 11.0544 21.3987 11.0544 21.3987H11.5637V22.3311C11.5637 22.7008 11.9207 23 12.3605 23C12.8008 23 13.1578 22.7008 13.1578 22.3311V21.3987H19.0832V22.3311C19.0832 22.7008 19.4398 23 19.8802 23C20.32 23 20.6769 22.7008 20.6769 22.3311V21.3987H20.8443C20.8443 21.3987 21.4838 21.4924 21.5247 21.0857C21.5247 19.97 21.5905 17.4973 21.5363 15.1634C21.8044 15.0737 22 14.81 22 14.4926V13.1236C22.0003 12.7533 21.7319 12.4529 21.3917 12.4233ZM12.9578 10.2942H18.9412V11.2608H12.9578V10.2942ZM13.0432 19.2978C12.5734 19.2978 12.1928 18.8911 12.1928 18.3895C12.1928 17.8882 12.5734 17.4818 13.0432 17.4818C13.513 17.4818 13.8939 17.8882 13.8939 18.3895C13.8939 18.8911 13.5133 19.2978 13.0432 19.2978ZM18.9092 19.2978C18.4397 19.2978 18.0582 18.8911 18.0582 18.3895C18.0582 17.8882 18.4394 17.4818 18.9092 17.4818C19.379 17.4818 19.7596 17.8882 19.7596 18.3895C19.7599 18.8911 19.379 19.2978 18.9092 19.2978ZM19.9904 16.3231H11.9086V11.7969H19.9904V16.3231Z" fill="#8B9AA3"/>
</svg>